<?xml version="1.0" encoding="utf-8"?>
<!-- Generator: Adobe Illustrator 25.0.1, SVG Export Plug-In . SVG Version: 6.00 Build 0)  -->
<svg version="1.1" id="Layer_1" xmlns="http://www.w3.org/2000/svg" xmlns:xlink="http://www.w3.org/1999/xlink" x="0px" y="0px"
	 viewBox="0 0 283.5 283.5" style="enable-background:new 0 0 283.5 283.5;" xml:space="preserve">
<style type="text/css">
	.st0{fill:#3394FF;}
</style>
<path class="st0" d="M196,150.7c0.4,0.7,0.7,1.3,1.2,1.8c1.6,1.7,1.5,4.8-0.4,6.5c-0.8,0.7-1.5,1.4-2.3,2c-1.5,1.2-2.3,2.9-2.4,4.8
	c0,1.6,0.2,3.2,0.3,4.8c0.1,1.1,0.3,2.1,0.3,3.2c0.2,3-1.2,5.1-3.9,6.4c-2,1-4.2,1.2-6.4,1.2c-3.6,0.1-7.1-0.4-10.6-1.2
	c-2.6-0.6-5.3-1.1-8-1.2c-5.5-0.3-10.3,1.4-14.5,4.9c-5.3,4.5-7.8,10.4-7.5,17.3c0.1,2.5,0.7,4.9,1.7,7.2c0.2,0.4,0.4,0.8,0.6,1.4
	c-0.3,0.1-0.6,0.1-0.8,0.1c-2.5,0-5,0-7.4,0c-0.5,0-0.9-0.1-1.2-0.4c-5.5-5.1-9.7-11.1-12.2-18.2c-1.8-5.1-2.6-10.4-2.2-15.9
	c0.3-4.6,1.6-9,3.5-13.2c2.6-5.7,5.9-10.9,9.8-15.7c3.6-4.4,7.4-8.7,11.1-13.1c3.5-4.3,7.1-8.5,10.4-12.9c4.3-5.7,7.8-12,10.1-18.8
	c1.6-4.7,2.8-9.5,3.1-14.5c0.6-8,0-15.9-2.1-23.6c-1.6-5.9-4.2-11.3-8.3-15.9c-5-5.7-11.2-9.5-18.5-11.5c-5.8-1.6-11.7-1.8-17.6-1.2
	c-5.7,0.6-11,2.1-16,4.9C99,43.7,94.1,49.3,90.4,56C87.7,61.1,86,66.6,85,72.3c-0.8,4.3-1.1,8.7-1,13.1c0,0.4,0,0.8,0,1.3
	c0,0.1-0.1,0.2-0.1,0.4c-1,0-2,0-3.2,0c-0.1-0.7-0.2-1.5-0.3-2.3c-0.9-7.8-1.7-15.7-2.6-23.6c-0.2-1.9-0.3-3.8-0.5-5.7
	c-0.1-0.6,0.1-1,0.3-1.5c8.1-14,19.6-23.6,35.4-27.8c4.2-1.1,8.6-1.8,12.9-2.2c5-0.4,10-0.5,15-0.2c7.3,0.5,14.5,1.6,21.3,4.3
	c7,2.8,13.6,6.5,19.6,10.9c6,4.4,9.9,10.3,12.4,17.2c1.2,3.3,2.1,6.7,2,10.3c0,1.5-0.2,3-0.7,4.4c-0.5,1.5-0.6,2.9-0.2,4.4
	c1,4.6,1.2,9.2,1,13.9c-0.1,1.6-0.2,3.2-0.3,4.8c-0.2,4.2,0.4,8.3,2.3,12.1c2,4,4.4,7.9,6.8,11.7c1.4,2.2,2.9,4.4,4.3,6.6
	c1.8,2.8,1.5,6.2-0.6,8.7c-0.8,0.9-1.8,1.5-2.9,2c-1.1,0.4-2.2,0.7-3.2,1.1c-2.6,1-3.2,2.3-2,4.9c0.2,0.5,0.5,1,0.7,1.6
	c1.1,2.8,0.2,5.1-2.4,6.4c-0.6,0.3-1.2,0.5-1.8,0.8C196.9,150.1,196.5,150.4,196,150.7z"/>
<path class="st0" d="M136.6,260.3c-9.5,0.3-17.3-8-17.2-17.2c0.2-9.8,8.3-17.2,17.3-17.1c8.9,0.1,17.1,7.2,17.1,17.3
	C153.8,253.3,145.4,260.5,136.6,260.3z"/>
</svg>
