<?xml version="1.0" encoding="UTF-8" standalone="no" ?>
<!DOCTYPE svg PUBLIC "-//W3C//DTD SVG 1.1//EN" "http://www.w3.org/Graphics/SVG/1.1/DTD/svg11.dtd">
<svg xmlns="http://www.w3.org/2000/svg" xmlns:xlink="http://www.w3.org/1999/xlink" version="1.1" width="1080" height="1080" viewBox="0 0 1080 1080" xml:space="preserve">
<desc>Created with Fabric.js 5.2.4</desc>
<defs>
</defs>
<g transform="matrix(1 0 0 1 540 540)" id="93c8f70e-e056-46fb-95f2-40db04708cf6"  >
</g>
<g transform="matrix(1 0 0 1 540 540)" id="7edb173f-3600-4580-8ff9-13ecca8bc338"  >
<rect style="stroke: none; stroke-width: 1; stroke-dasharray: none; stroke-linecap: butt; stroke-dashoffset: 0; stroke-linejoin: miter; stroke-miterlimit: 4; fill: rgb(255,255,255); fill-rule: nonzero; opacity: 1; visibility: hidden;" vector-effect="non-scaling-stroke"  x="-540" y="-540" rx="0" ry="0" width="1080" height="1080" />
</g>
<g transform="matrix(4.21 0 0 4.21 540 540)"  >
<path style="stroke: none; stroke-width: 1; stroke-dasharray: none; stroke-linecap: butt; stroke-dashoffset: 0; stroke-linejoin: miter; stroke-miterlimit: 4; fill: rgb(5,195,116); fill-rule: evenodd; opacity: 1;" vector-effect="non-scaling-stroke"  transform=" translate(-112.44, -112.47)" d="M 93.624 25.638 C 89.842 26.449 83.767 28.231 80.124 29.599 C 76.481 30.966 70.46 33.888 66.744 36.091 C 63.028 38.294 57.279 42.351 53.968 45.106 C 50.657 47.861 45.486 53.101 42.476 56.75 C 39.467 60.399 34.948 67.366 32.434 72.232 C 29.826 77.283 26.799 85.247 25.38 90.79 C 23.413 98.483 22.896 102.993 22.896 112.5 C 22.896 121.96 23.415 126.525 25.345 134.07 C 26.692 139.333 29.468 146.983 31.514 151.07 C 33.56 155.156 37.476 161.54 40.216 165.255 C 42.956 168.971 47.965 174.519 51.349 177.585 C 54.732 180.65 60.65 185.12 64.5 187.517 C 68.35 189.915 74.875 193.221 79 194.865 C 83.125 196.509 90.55 198.614 95.5 199.543 C 102.186 200.799 107.585 201.097 116.5 200.706 C 123.1 200.416 131.2 199.46 134.5 198.582 C 137.8 197.705 143.425 195.775 147 194.294 C 150.575 192.812 156.096 190.089 159.269 188.241 C 162.442 186.394 167.752 182.623 171.069 179.863 C 174.386 177.102 179.789 171.461 183.075 167.325 C 186.361 163.19 191.048 155.688 193.49 150.653 C 195.933 145.619 198.844 137.675 199.959 133 C 201.41 126.914 201.986 121.092 201.986 112.5 C 201.986 103.908 201.41 98.086 199.959 92 C 198.844 87.325 195.962 79.45 193.555 74.5 C 191.148 69.55 186.94 62.551 184.204 58.946 C 181.468 55.341 176.815 50.207 173.865 47.538 C 170.914 44.868 165.389 40.661 161.586 38.187 C 157.783 35.714 151.033 32.218 146.586 30.417 C 142.139 28.617 135.031 26.436 130.792 25.572 C 126.245 24.644 118.454 24.033 111.792 24.082 C 105.581 24.126 97.406 24.827 93.624 25.638 M 104.762 54.19 L 98.097 66.381 L 101.008 68.151 C 102.61 69.125 105.047 71.627 106.425 73.711 C 107.802 75.795 116.718 94.375 126.238 115 C 135.757 135.625 143.9 153.063 144.332 153.75 C 144.906 154.663 149.314 155 160.666 155 C 172.715 155 176.097 154.719 175.694 153.75 C 175.407 153.063 166.873 134.725 156.728 113 C 146.583 91.275 136.467 69.9 134.248 65.5 C 132.029 61.1 128.267 55.294 125.888 52.597 C 123.508 49.901 119.793 46.413 117.631 44.847 C 115.469 43.281 113.189 42 112.564 42 C 111.939 42 108.428 47.486 104.762 54.19 M 61.812 131.21 C 55.04 143.425 49.35 153.775 49.167 154.21 C 48.983 154.644 55.092 155 62.741 155 L 76.649 155 L 88.825 132.951 C 95.521 120.824 101 110.474 101 109.951 C 101 109.397 95.393 109 87.562 109 L 74.124 109 L 61.812 131.21" stroke-linecap="round" />
</g>
</svg>