<svg xmlns="http://www.w3.org/2000/svg" viewBox="0 0 173.8 173.8"><defs><style>.cls-1{fill:none;stroke:#000;}</style></defs><g id="Layer_2" data-name="Layer 2"><g id="Layer_1-2" data-name="Layer 1"><path d="M101.75,76.13H86.22L84.39,72a6,6,0,0,0,.61-.45l2.75-2.63q.31-.3.6-.63a1.73,1.73,0,0,0,0-2.67c-1.12-1.28-2.28-2.52-3.44-3.76a5,5,0,0,0-1-.77,1.51,1.51,0,0,0-1.87.11,8.07,8.07,0,0,0-.67.64l-3.64,3.71c-.2-.07-.37-.12-.54-.19-2.56-1.09-5.11-2.18-7.67-3.24a.82.82,0,0,1-.61-.9c0-1.44,0-2.87,0-4.31,0-.24,0-.48,0-.72,0-1.44-.4-1.86-1.82-1.88-1.85,0-3.69,0-5.53,0-1.36,0-1.9.62-1.9,2,0,1.6,0,3.2,0,4.81v.82l-1.68.68c-2.2.88-4.4,1.76-6.58,2.66a.88.88,0,0,1-1.14-.2c-1-1-2.11-2-3.17-3l-.37-.34c-1.06-1-1.79-1-2.79.05-1.16,1.17-2.3,2.37-3.43,3.58a2,2,0,0,0,.06,3.15l3.15,3.15.51.54L42.6,75.7H26.77C29.5,63.47,41.87,48.19,61.85,47A38.63,38.63,0,0,1,101.75,76.13Z"/><path d="M59.75,109.86c0,1.77,0,3.47,0,5.17a5.47,5.47,0,0,0,.13,1.21,1.33,1.33,0,0,0,1.37,1.14c2,0,4.07,0,6.11,0a1.4,1.4,0,0,0,1.47-1.22A4.85,4.85,0,0,0,69,115c0-1.46,0-2.92,0-4.38v-.77l8.94-3.6,10.24,10c-8,6.83-21.5,10.77-34.88,6.85A38.55,38.55,0,0,1,26.7,95.8c.55-.16,14.08-.14,15.92,0l1.69,3.75-.49.53-3.18,3.22c-.1.11-.2.21-.29.32a1.67,1.67,0,0,0,.08,2.64c1.22,1.22,2.45,2.42,3.69,3.62a3.61,3.61,0,0,0,.62.49,1.58,1.58,0,0,0,1.94-.11,9,9,0,0,0,.78-.73l3.41-3.45Z"/><path d="M4.31,78.34h.74c4,0,8.09,0,12.14,0a15.11,15.11,0,0,1,2.85.26,3.11,3.11,0,0,1,2.82,3.13,8,8,0,0,1-.14,2.07,2.13,2.13,0,0,1-1.42,1.67l-.56.23c.27.09.44.16.61.2a2.4,2.4,0,0,1,1.93,2,6.68,6.68,0,0,1,0,2.85A2.89,2.89,0,0,1,21,93.06a8.83,8.83,0,0,1-1.85.22c-4.76,0-9.53,0-14.29,0-.17,0-.33,0-.54,0Zm4.56,5.92.5,0h7.39a3.77,3.77,0,0,0,.58,0,1,1,0,0,0,1-1.1,1.06,1.06,0,0,0-1-1.2,3.44,3.44,0,0,0-.64,0H9.46c-.19,0-.37,0-.59,0Zm0,5.42c.22,0,.36,0,.51,0h7.67a5.52,5.52,0,0,0,.71,0,1,1,0,0,0,1-1,1.08,1.08,0,0,0-.91-1.18,2.88,2.88,0,0,0-.71-.09H9.31c-.13,0-.27,0-.44,0Z"/><path d="M126.39,78.34h.75c4.26,0,8.52,0,12.78,0a16,16,0,0,1,2.85.24c2.3.43,3.47,1.68,3.57,4,.11,2.15,0,4.31,0,6.46a5.12,5.12,0,0,1-.25,1.33A3.31,3.31,0,0,1,144,92.69a13.46,13.46,0,0,1-2.36.54,14.48,14.48,0,0,1-1.87.07H126.39ZM131,82.08a51.5,51.5,0,0,0,.05,7.38c.11,0,.23,0,.35,0q3.87,0,7.75,0a6.3,6.3,0,0,0,1.14-.12,1.65,1.65,0,0,0,1.35-1.15,3.73,3.73,0,0,0,.17-1c0-1,0-2,0-2.95a4.74,4.74,0,0,0-.13-.84,1.62,1.62,0,0,0-1.32-1.27,6.86,6.86,0,0,0-1.28-.13h-7.47C131.41,82,131.2,82.07,131,82.08Z"/><path d="M122.65,83h-4.48c0-.12,0-.21-.06-.3-.1-.76-.31-1-1.06-1.12a6.9,6.9,0,0,0-.78-.09c-1.85,0-3.69,0-5.54,0a3.13,3.13,0,0,0-.85.13A1.09,1.09,0,0,0,109,82.8a.93.93,0,0,0,.89,1A13.15,13.15,0,0,0,112,84c1.92,0,3.84,0,5.75.07a26.27,26.27,0,0,1,2.64.28,4,4,0,0,1,.82.24,2.73,2.73,0,0,1,1.91,2.14,10.09,10.09,0,0,1,0,4.06,2.62,2.62,0,0,1-1.92,2.13,8.8,8.8,0,0,1-2.31.43c-3.47,0-6.94,0-10.42,0a6.46,6.46,0,0,1-1.62-.27,2.81,2.81,0,0,1-2.3-2.53c-.09-.68-.09-1.37-.14-2.11H109c0,.18.06.37.1.55a1.16,1.16,0,0,0,1.22,1.08,5.44,5.44,0,0,0,.57,0c2,0,3.93,0,5.89,0a4.14,4.14,0,0,0,1-.1,1.12,1.12,0,0,0,.89-1.22,1,1,0,0,0-.91-1.1,11.38,11.38,0,0,0-1.85-.2c-1.53,0-3.06,0-4.6-.05-1.21,0-2.44-.1-3.65-.26-2.21-.28-3-1.14-3.13-3.36a17.08,17.08,0,0,1,.09-2.58,2.91,2.91,0,0,1,2-2.52,8.48,8.48,0,0,1,3-.54q4.14,0,8.26,0a9.84,9.84,0,0,1,2.41.37,2.93,2.93,0,0,1,2.41,2.92C122.69,82,122.65,82.45,122.65,83Z"/><path d="M90.09,87.29v2.42h12v3.53H85.52V78.45c.53-.15,14.31-.22,16.19-.08a12,12,0,0,1,.05,3.39H90.1c-.11.83,0,1.58-.06,2.44l2.8,0h8.35v3.07Z"/><path d="M42,84.21v3.08c-1,0-1.87,0-2.79,0h-8.3v2.4h12v3.47c-.54.14-15.64.18-16.53,0V78.37H42.56v3.41H30.86v2.42Z"/><path d="M68.27,93.25H63.74V78.35c1.48,0,2.94,0,4.51,0v5.29H78V78.38h4.54V93.16a20.4,20.4,0,0,1-4.52.07c0-1.82,0-3.65,0-5.46-.54-.16-8.45-.22-9.71-.07Z"/><path d="M154.17,90.71c-.33.64-.7,1.31-1,2a.86.86,0,0,1-.93.6c-1.43,0-2.86,0-4.38,0a4.7,4.7,0,0,1,.17-.5q3.79-7,7.58-14a.77.77,0,0,1,.79-.45c1.63,0,3.26,0,4.88,0a.74.74,0,0,1,.76.39q3.87,7.09,7.77,14.16c0,.1.08.21.15.37-.27,0-.48,0-.68,0-1.22,0-2.45,0-3.67,0a.9.9,0,0,1-1-.62c-.26-.56-.59-1.09-.88-1.65a.61.61,0,0,0-.6-.39l-8.84,0Zm4.65-8.92c-1,1.92-1.94,3.72-2.88,5.62h5.86Z"/><path d="M61.83,78.38V82H55.42V93.24H50.84V82.05H44.42V78.38Z"/><path d="M84.9,97.69v5.84h-.85V96.64a7.75,7.75,0,0,1,1.18,0,1,1,0,0,1,.52.43L89,101.78l.5.68.58-.82c1-1.43,2-2.84,3-4.31a1.33,1.33,0,0,1,1.47-.72l.46,0v6.87h-.85c-.06-2,0-3.9-.15-5.88-.13.15-.26.3-.38.46-1.11,1.59-2.21,3.19-3.31,4.78l-.17.24c-.47.66-.82.65-1.3,0l-1.19-1.71L85.47,98.2c-.13-.19-.28-.37-.42-.56Z"/><path d="M138.15,103.53V96.69a4,4,0,0,1,.56-.08h5.09a7.87,7.87,0,0,1,1.08.09,1.81,1.81,0,0,1,1.64,1.47,8.55,8.55,0,0,1,0,3.7,1.9,1.9,0,0,1-1.65,1.58,5.64,5.64,0,0,1-.92.11H138.5C138.41,103.58,138.31,103.55,138.15,103.53Zm.94-.72.74,0h3.51c.35,0,.71,0,1.07,0a1.34,1.34,0,0,0,1.27-1.16,7.68,7.68,0,0,0,0-3.13,1.29,1.29,0,0,0-1.3-1.11l-.36,0h-4.44a4.19,4.19,0,0,0-.48.06Z"/><path d="M72.32,98.67h-.66c0-.06-.1-.09-.1-.13-.19-1-.33-1.16-1.29-1.2-1.41-.07-2.83-.08-4.24,0a1.23,1.23,0,0,0-1.34,1.37c0,1,0,1.91,0,2.87s.49,1.32,1.43,1.34c1.27,0,2.54,0,3.8,0s1.82-.54,1.54-2H68l0-.67h4.45a4.71,4.71,0,0,1-.24,2.49,1.47,1.47,0,0,1-1.23.88,5.48,5.48,0,0,1-1,.07c-1.19,0-2.39,0-3.59,0H66.1c-1.64-.07-2.29-.72-2.33-2.36,0-.79,0-1.58,0-2.37a3.47,3.47,0,0,1,.06-.64,1.86,1.86,0,0,1,1.9-1.7h.36c1.32,0,2.63,0,4,0a4.75,4.75,0,0,1,1.06.15A1.61,1.61,0,0,1,72.32,98.67Z"/><path d="M110,101.46h.71a.76.76,0,0,1,.08.15c.09,1,.32,1.26,1.33,1.28,1.25,0,2.49,0,3.74,0,1.09,0,1.33-.71,1.21-1.6a.77.77,0,0,0-.7-.71,8.44,8.44,0,0,0-1-.09l-2.66,0c-.31,0-.62,0-.93,0A1.83,1.83,0,0,1,110,97.86a1.4,1.4,0,0,1,1-1.1,4.31,4.31,0,0,1,1.13-.19c1.1,0,2.2,0,3.3,0a4.93,4.93,0,0,1,.85.1,1.53,1.53,0,0,1,1.43,1.87l-.69,0c-.06-.08-.11-.12-.12-.16-.06-.71-.19-1-1.15-1.06a37,37,0,0,0-3.94,0c-.83.05-1.14.58-1,1.41a.79.79,0,0,0,.71.78,6.27,6.27,0,0,0,1.14.1c.87,0,1.73,0,2.59,0l.72,0c1.78.11,2.19,1,1.92,2.61a1.34,1.34,0,0,1-1,1.12,3.06,3.06,0,0,1-.84.17c-1.39,0-2.77,0-4.16,0h-.22C110.34,103.47,109.84,102.86,110,101.46Z"/><path d="M161.84,101.46h.69l.08.09c.15,1.15.34,1.33,1.49,1.34s2.2,0,3.3,0a3,3,0,0,0,.43,0,1.24,1.24,0,0,0,1-1.86,1,1,0,0,0-.61-.43,4.74,4.74,0,0,0-1.07-.1l-3,0-.51,0a1.84,1.84,0,0,1-1.76-2.56,1.43,1.43,0,0,1,.95-1.08,2.09,2.09,0,0,1,.49-.13,21.39,21.39,0,0,1,4.93,0,1.51,1.51,0,0,1,1.37,1.85l-.7,0c-.06-.08-.11-.12-.12-.16-.06-.77-.28-1-1.16-1.06a35.69,35.69,0,0,0-3.87,0c-.88,0-1.2.57-1.09,1.42a.79.79,0,0,0,.72.78,8,8,0,0,0,1.21.11H167c.26,0,.53,0,.79,0,1.77.1,2.19,1,1.92,2.61a1.36,1.36,0,0,1-1,1.12,3.46,3.46,0,0,1-.84.16c-1.39,0-2.78,0-4.16,0h-.22C162.22,103.47,161.72,102.85,161.84,101.46Z"/><path d="M155.74,103.62c-.81,0-1.62,0-2.44,0a1.83,1.83,0,0,1-2-1.93,23.65,23.65,0,0,1,0-3.15,1.88,1.88,0,0,1,2.1-2c1.56,0,3.11,0,4.67,0a1.85,1.85,0,0,1,2.1,1.94,24.87,24.87,0,0,1,0,3.23,1.79,1.79,0,0,1-1.93,1.87c-.84,0-1.68,0-2.52,0Zm0-.73c.7,0,1.39,0,2.08,0,1,0,1.46-.47,1.48-1.45s0-1.77,0-2.66-.45-1.46-1.45-1.48c-1.42,0-2.83,0-4.24,0a1.27,1.27,0,0,0-1.43,1.42c0,.91,0,1.82,0,2.73s.47,1.41,1.49,1.44C154.39,102.91,155.09,102.89,155.78,102.89Z"/><path d="M97,96.64h6.72l0,.72H97.86v2.21h5.59l0,.79H97.86v2.43a11.91,11.91,0,0,0,1.89,0h4v.69H97Z"/><path d="M74.44,103.56h-.92a2.35,2.35,0,0,1,.17-.45l3.59-6A1,1,0,0,1,79,97l3.66,6.17c0,.08.07.17.14.32h-1c-.19-.31-.41-.65-.6-1a.69.69,0,0,0-.68-.41c-1.58,0-3.16,0-4.73,0a.68.68,0,0,0-.69.39C74.89,102.85,74.67,103.19,74.44,103.56Zm3.68-6.21-2.29,3.88a19.9,19.9,0,0,0,4.57,0Z"/><path d="M128.24,96.64H129c0,.23.05.46.05.69,0,1.33,0,2.67,0,4a5.37,5.37,0,0,0,0,.57.91.91,0,0,0,.89,1,2,2,0,0,0,.43,0h4c.71-.09,1-.36,1-1.07,0-1.29,0-2.58,0-3.87V96.67h.9c0,.22,0,.41,0,.59v4.37a4.63,4.63,0,0,1,0,.65,1.35,1.35,0,0,1-1.12,1.23,5.45,5.45,0,0,1-1.14.12c-1.2,0-2.39,0-3.59,0a5.55,5.55,0,0,1-1.07-.11,1.32,1.32,0,0,1-1.19-1.39c0-1.77,0-3.54,0-5.31C128.16,96.79,128.19,96.75,128.24,96.64Z"/><path d="M122.48,97.37H119v-.72h7.86a3.63,3.63,0,0,1,.06.38,1.48,1.48,0,0,1-.09.35h-3.42v6.16h-.91Z"/><path d="M148.52,96.68a.92.92,0,0,1,.25-.06c.17,0,.33,0,.49,0a56,56,0,0,1,0,6.89h-.75A55.71,55.71,0,0,1,148.52,96.68Z"/><path d="M167.76,81.59a1.83,1.83,0,1,1,1.86-1.8A1.85,1.85,0,0,1,167.76,81.59Zm1-.87a1,1,0,0,0,.46-1.29,1.39,1.39,0,0,0-1.13-1.07A1.42,1.42,0,0,0,167,81a1.24,1.24,0,0,0,1.7-.27Z"/><path d="M168.74,80.7a.49.49,0,0,1-.69-.3c-.09-.2-.16-.47-.56-.42l-.17.76c-.36-.24-.43-.94-.19-1.95.26,0,.54,0,.82,0s.64,0,.76.39-.07.64-.47.79c.17.28.33.51.48.75Zm-1.27-1.09a3.76,3.76,0,0,0,.67,0c.08,0,.13-.21.19-.32a3.16,3.16,0,0,0-.65-.18C167.39,79.1,167.36,79.32,167.47,79.61Z"/><circle class="cls-1" cx="86.9" cy="86.9" r="86.4"/></g></g></svg>