<svg xmlns="http://www.w3.org/2000/svg" viewBox="0 0 75.63 94.63"><defs><style>.cls-1{fill:#fff;}</style></defs><g id="Layer_2" data-name="Layer 2"><g id="Layer_1-2" data-name="Layer 1"><path d="M0,46.73C1.13,36.4,2.12,26.48,3.33,16.58,4.63,5.84,11.72.69,21.65.24A326.5,326.5,0,0,1,56.76.85c7.46.47,12.44,4.83,14.78,12.34,3.73,12,4,24.36,4.09,36.72A113.44,113.44,0,0,1,72.18,80C70,88.37,64.41,92.81,56.31,93.69s-16.19.84-24.3.94a82.35,82.35,0,0,1-11.93-.87c-9.37-1.29-14.76-5.71-16.34-15C1.92,68.11,1.18,57.26,0,46.73ZM3.32,45C4.5,56.51,5.36,67,6.7,77.34c1,7.45,5.54,12.3,13,12.79,11.05.71,22.17,1,33.24.66,10-.31,14.31-4.41,16.61-14.07,3.59-15,3.25-30.29,1.88-45.51-.55-6-2.16-12-3.61-17.93-1.25-5.13-4.89-8-10-8.9a119.36,119.36,0,0,0-39.15-.31C12.63,5,8.2,8.34,7.26,14.78,5.76,25.13,4.55,35.51,3.32,45Z"/><path class="cls-1" d="M3.32,45c1.23-9.51,2.44-19.89,3.94-30.24C8.2,8.34,12.63,5,18.69,4.07a119.36,119.36,0,0,1,39.15.31c5.13.94,8.77,3.77,10,8.9,1.45,5.92,3.06,11.89,3.61,17.93,1.37,15.22,1.71,30.47-1.88,45.51C67.29,86.38,63,90.48,53,90.79c-11.07.34-22.19,0-33.24-.66-7.5-.49-12.07-5.34-13-12.79C5.36,67,4.5,56.51,3.32,45Zm8,36.44c4.69.73,6.52.1,7.66-4a73.74,73.74,0,0,0,2.58-15c.43-6.79.11-13.63.11-20.44l1.35-.18c.55,1.17,1.19,2.31,1.64,3.52,3.71,9.82,7.58,19.59,11,29.52,1.26,3.7,3.13,4.69,6,3.79V47.07c2,0,4.26-.15,6.47,0,4.62.38,6.08,1.93,6.43,6.63.18,2.5,0,5,.3,7.5A145.88,145.88,0,0,0,57,77.16c.89,4,3.93,4.93,9.1,2.66-6.44.4-7.08-3.18-7.15-7.29q-.16-9.37-.47-18.75c-.16-5.26-2.62-8-7.84-8.79-2.43-.35-4.89-.5-8.36-.84C48.86,38.49,52.55,30.44,62.14,30c-5.26-2.06-8.51-1.27-11.62,2.24-2.86,3.22-5.82,6.35-8.73,9.51l-.92-.38c0-7.19.05-14.38,0-21.57,0-2.86-.39-5.75,3.17-6.88H34c3.17,1.28,3.4,3.66,3.38,6.47-.1,11.75,0,23.51,0,35.27V65.33a8.37,8.37,0,0,1-2.25-3.52c-3.49-9.37-7-18.73-10.4-28.12-1.83-5-4.75-6.21-10.6-3.65,4.32.14,6.09,2.23,6,5.94-.46,12.24-.78,24.48-1.49,36.71C18.27,76.93,16.7,80.82,11.37,81.46Z"/><path d="M11.37,81.46c5.33-.64,6.9-4.53,7.15-8.77.71-12.23,1-24.47,1.49-36.71.14-3.71-1.63-5.8-6-5.94,5.85-2.56,8.77-1.35,10.6,3.65,3.41,9.39,6.91,18.75,10.4,28.12a8.37,8.37,0,0,0,2.25,3.52V54.66c0-11.76-.06-23.52,0-35.27,0-2.81-.21-5.19-3.38-6.47H44c-3.56,1.13-3.2,4-3.17,6.88.07,7.19,0,14.38,0,21.57l.92.38c2.91-3.16,5.87-6.29,8.73-9.51,3.11-3.51,6.36-4.3,11.62-2.24-9.59.44-13.28,8.49-19.89,14.15,3.47.34,5.93.49,8.36.84,5.22.76,7.68,3.53,7.84,8.79q.3,9.38.47,18.75c.07,4.11.71,7.69,7.15,7.29-5.17,2.27-8.21,1.36-9.1-2.66A145.88,145.88,0,0,1,54.9,61.24c-.26-2.48-.12-5-.3-7.5-.35-4.7-1.81-6.25-6.43-6.63-2.21-.19-4.44,0-6.47,0v31.6c-2.89.9-4.76-.09-6-3.79-3.39-9.93-7.26-19.7-11-29.52-.45-1.21-1.09-2.35-1.64-3.52L21.72,42c0,6.81.32,13.65-.11,20.44A73.74,73.74,0,0,1,19,77.5C17.89,81.56,16.06,82.19,11.37,81.46Z"/></g></g></svg>