<?xml version="1.0" encoding="utf-8"?>
<!-- Generator: Adobe Illustrator 25.0.1, SVG Export Plug-In . SVG Version: 6.00 Build 0)  -->
<svg version="1.1" id="Layer_1" xmlns="http://www.w3.org/2000/svg" xmlns:xlink="http://www.w3.org/1999/xlink" x="0px" y="0px"
	 viewBox="0 0 137.8 137.8" style="enable-background:new 0 0 137.8 137.8;" xml:space="preserve">
<style type="text/css">
	.st0{fill:#0454A3;}
	.st1{fill:#0354A4;}
	.st2{fill:#0354A3;}
	.st3{fill:#0254A4;}
	.st4{fill:#0455A5;}
	.st5{fill:#0355A5;}
	.st6{fill:#0AABE9;}
	.st7{fill:#2E5680;}
	.st8{fill:#085296;}
	.st9{fill:#214C75;}
	.st10{fill:#214C7B;}
	.st11{fill:#3C6FAA;}
	.st12{fill:#396DA3;}
	.st13{fill:#3E6FA2;}
	.st14{fill:#234E68;}
	.st15{fill:#214D81;}
	.st16{fill:#34669D;}
	.st17{fill:#234D7E;}
	.st18{fill:#224E77;}
	.st19{fill:#234E7B;}
	.st20{fill:#27506A;}
	.st21{fill:#2D566F;}
	.st22{fill:#24588E;}
	.st23{fill:#2FA9D5;}
	.st24{fill:#6586A2;}
	.st25{fill:#184D84;}
	.st26{fill:none;stroke:#0AFFE9;stroke-miterlimit:10;}
</style>
<g id="Layer_2_1_">
	<g id="Layer_1-2">
		<path class="st0" d="M31.1,79L31.1,79H31l-1-0.3c-2.4-0.7-4.3-2.6-4.9-5c-0.7-2.7-0.9-5.5-0.6-8.3c0-1.8,0.4-3.6,1.2-5.2
			c1-2,3-3.4,5.2-3.7c0.3,0,0.6,0,0.8,0c0.3-0.1,0.5-0.2,0.8-0.3c0,0,0.1,0,0.1,0c0,0,0,0,0,0h7.3c1.7,0,3.3,0.6,4.7,1.6
			c1.7,1.2,2.8,3.1,3,5.2c0,0.5,0.2,1,0.3,1.5V71c0.1,4.5-3.5,8.2-8,8.3c-0.1,0-0.3,0-0.4,0h-6.2c-0.2-0.1-0.3-0.2-0.5-0.2
			C32.1,78.9,31.6,79,31.1,79z M43.6,68.2c-0.1-1.3-0.2-2.4-0.3-3.5c-0.3-2.7-1.7-4.4-4.1-4.7c-1.9-0.2-3.8-0.2-5.7,0
			c-2.2,0.1-4,1.8-4.2,4c-0.6,2.8-0.6,5.7,0.1,8.5c0.4,1.9,1.9,3.3,3.8,3.5c1.9,0.2,3.7,0.2,5.6,0.1c2.6-0.3,3.9-1.7,4.4-4.2
			C43.4,70.6,43.5,69.3,43.6,68.2L43.6,68.2z"/>
		<path class="st1" d="M2.2,60.2c-0.2-0.8,0-1.6,0.4-2.3l1.6-1.2c0,0,0.1,0,0.1,0c0,0,0,0,0,0h14.2c1.8,0.2,3.3,1.5,3.7,3.3
			c0.7,2.6,0.7,5.3,0,7.9c-0.4,1.8-2,3.2-3.9,3.3c-3.8,0-7.5,0-11.3,0c-0.2,0-0.3,0.1-0.4,0.1l-0.1,0.5l0,0
			c-0.1,0.2-0.1,0.5-0.1,0.7c0,2.2,0,4.5,0,6.7H2.5c0-6.1,0-12.2,0-18.2C2.4,60.7,2.3,60.5,2.2,60.2z M16.7,67.6l0.8-0.5
			c0.3-0.4,0.5-0.9,0.7-1.4c0.1-1,0.1-2,0-2.9c-0.1-1.6-0.8-2.5-2.4-2.6C13.1,60,10.3,60,7.5,60c-0.6,0-1,0.4-1,1c0,0,0,0,0,0.1
			c0,2.3,0,4.6,0,6.8c0.1,0,0.2,0.1,0.3,0.1h9.1c0.1,0,0.3-0.2,0.5-0.2L16.7,67.6z M6.3,61.3L6.3,61.3l-0.1,6.2h0.1V61.3z"/>
		<path class="st2" d="M50.8,79.3c-1.4-0.3-2-1.4-1.7-2.9s1.3-2.3,2.3-3.3c3.8-3.9,7.6-7.9,11.4-11.8c0.1-0.1,0.2-0.2,0.3-0.4
			c0.3-0.5,0.2-0.8-0.4-0.9c-0.2,0-0.4,0-0.7,0h-11c-0.2,0-0.5,0-0.7,0c-0.5-1-0.2-2-0.2-3c0-0.1,0.2-0.1,0.2-0.2
			c5.9,0.2,11.9-0.3,17.8,0.3l0.1,0.1l0.5,0.8c0.5,1.3,0.1,2.7-0.9,3.6c-2.2,2.4-4.5,4.8-6.8,7.2c-2,2.2-4.1,4.3-6.1,6.5
			c-0.1,0.2-0.3,0.5-0.3,0.8c0.2,0.1,0.3,0.2,0.5,0.2c0.4,0,0.8,0,1.2,0h11.8c0.1,0.8,0.2,1.6,0.3,2.4s-0.2,0.8-0.8,0.8
			C62.1,79.2,56.4,79.3,50.8,79.3z"/>
		<path class="st3" d="M101.8,62.2c1.3,0.1,2.4,0.8,3.1,1.9c0,0.6,0.2,1.2,0.6,1.7l0,0c-0.2,4.2,0.3,8.5-0.3,12.7l-1.2,0.7H92.6
			c-1.4-0.3-2.5-1.5-2.6-2.9c0-0.2-0.1-0.3-0.1-0.5c0-1.2,0-2.5,0-3.7c0.2-1.6,1.4-3,3-3.3c2.8,0,5.6,0,8.4,0c0.2,0,0.3-0.1,0.4-0.1
			c0.4-1.9,0.1-3.1-1.4-3.6c-0.2-0.1-0.5-0.2-0.7-0.3c-2.6,0-5.1,0-7.6,0c-0.3,0-0.6,0-1,0l0.4-2.5L101.8,62.2z M94.8,71.7
			c-0.6,0.2-1,0.7-1.1,1.4c0,0.9,0.1,1.8,0.2,2.7c0,0.6,0.4,0.9,1.2,0.9c1.9,0,3.8,0,5.7,0c0.2,0,0.4-0.1,0.6-0.2l0.2-0.1
			c0.1-0.2,0.4-0.3,0.4-0.5c0.1-0.8,0-1.6,0-2.4c0-0.6-0.1-1.1-0.1-1.7l-0.2-0.2c-0.1-0.1-0.2-0.1-0.3-0.1h-6.1
			C95.1,71.5,95,71.6,94.8,71.7z"/>
		<path class="st4" d="M71.4,64.1c0.1-1,0.9-1.9,1.9-1.9h9c2.5,0,4.6,2,4.8,4.5c0,0.2,0,0.5,0,0.7c0,3.7,0,7.4,0,11
			c0,0.7-0.2,0.8-0.8,0.8c-0.6,0-1.2,0-1.9,0c-0.7,0.1-0.8-0.2-0.8-0.8c0-3.3,0-6.7,0-10c0-0.3-0.1-0.5-0.3-0.7
			c-0.5-2-1.3-2.6-3.4-2.6c-1.2,0-2.5,0-3.7,0c-0.3,0.1-0.7,0.2-1,0.3c-0.1,0.2-0.2,0.5-0.3,0.8c0,4.1,0,8.2,0,12.3
			c0,0.6-0.2,0.8-0.8,0.8c-0.6-0.1-1.2-0.1-1.9,0c-0.7,0.1-0.8-0.2-0.8-0.8c0-4.5,0-9,0-13.5C71.4,64.6,71.4,64.4,71.4,64.1z"/>
		<path class="st5" d="M120.8,68v-0.5c0-0.4,0.1-0.8-0.1-1.1c-0.5-0.9-1.5-1.5-2.5-1.5c-1.5,0-3.1,0-4.6,0c-0.2,0-0.4,0.2-0.6,0.3
			c-0.2,0.4-0.3,0.7-0.3,1.1c0,4.1,0,8.2,0,12.3c0,0.3,0,0.5-0.1,0.8c0,0,0-0.1,0-0.1V65.9h-0.1v13.4c-0.9,0-1.8,0-2.7,0
			c-0.7,0-0.8-0.2-0.8-0.8c0-4.5,0-9.1,0-13.6c0-0.3,0-0.6-0.1-0.9c0.1-1,0.9-1.7,1.9-1.8h9c2.6,0.1,4.7,2.1,4.8,4.6
			c0,0.2,0,0.5,0,0.7c0,3.6,0,7.2,0,10.8c0,0.7-0.2,0.9-0.9,0.9s-1.3,0-2,0h-0.1h-0.5c0-3.5,0-7,0-10.5
			C121.1,68.5,121,68.2,120.8,68z"/>
		<path class="st6" d="M119.6,52.1l-0.7-0.4l1.3-2.3l5,2.9v-5.7c0.8,0,1.6,0,2.4,0c0.1,0,0.3,0.4,0.3,0.6c0,1.4,0,2.8,0,4.2v0.8
			l4.8-2.8l1.4,2.3l-5,2.8l5.1,3l-1.3,2.3L128,57v4.9h-2.7V57c-1.2,0.7-2.3,1.2-3.3,1.9c-1.3,0.9-2.9,1.4-4.4,1.2
			c-0.8-0.1-1.6,0-2.5-0.2l1.8-1l6.7-3.9l0.5-0.3l-0.8-0.5c0,0,0,0-0.1,0l-0.5-0.3c0,0-0.1,0-0.1,0l-0.9-0.5l0,0
			c-0.3-0.7-0.8-0.8-1.4-0.9l0,0L119.6,52.1z"/>
		<path class="st7" d="M50.8,79.3c5.6,0,11.3,0,16.9,0c0.7,0,0.9-0.2,0.8-0.8s-0.2-1.6-0.3-2.4c0.1,0.1,0.4,0.2,0.4,0.4c0,1,0,2,0,3
			H68c-5.3,0-10.6,0-15.9,0C51.6,79.4,51.2,79.4,50.8,79.3z"/>
		<path class="st8" d="M2.2,60.2c0.1,0.2,0.2,0.5,0.3,0.8c0,6.1,0,12.2,0,18.2H2.2c0-2.3,0-4.5,0-6.8C2.2,68.4,2.2,64.3,2.2,60.2z"
			/>
		<path class="st9" d="M71.4,64.1c0,0.2,0.1,0.5,0.1,0.8c0,4.5,0,9,0,13.5c0,0.7,0.2,0.9,0.8,0.8c0.6-0.1,1.2-0.1,1.9,0
			c0.6,0,0.8-0.2,0.8-0.8c0-4.1,0-8.2,0-12.3c0-0.3,0.1-0.5,0.3-0.8v0.3C75.1,65.8,75,65.9,75,66v13.3h-3.7c0-0.1,0-0.3,0-0.6v-14
			C71.3,64.5,71.3,64.3,71.4,64.1z"/>
		<path class="st10" d="M83.3,67.7c0.1,0.2,0.2,0.5,0.3,0.7c0,3.3,0,6.7,0,10c0,0.6,0.2,0.9,0.8,0.8c0.6,0,1.2,0,1.9,0
			c0.6,0,0.8-0.1,0.8-0.8c0-3.7,0-7.3,0-11c0-0.2,0-0.5,0-0.7c0.1,0.2,0.1,0.5,0.1,0.7c0,3.9,0,7.7,0,11.6c0,0.1,0,0.2,0,0.4h-3.8
			v-0.8c0-3.1,0-6.3,0-9.4C83.4,68.7,83.3,68.2,83.3,67.7z"/>
		<path class="st11" d="M121.5,79.3h0.1l2.9,0.2h-3.8V68c0.1,0.2,0.2,0.5,0.2,0.7c0,3.5,0,7,0,10.5L121.5,79.3z"/>
		<path class="st12" d="M105.2,78.5c0.6-4.2,0.1-8.5,0.3-12.7c0.1,0.5,0.2,1,0.2,1.5c0,3.1,0,6.2,0,9.4
			C105.6,77.3,105.5,77.9,105.2,78.5z"/>
		<path class="st13" d="M91.3,62.2L91,64.8c0.4,0,0.7,0,1,0c2.5,0,5.1,0,7.6,0c0.3,0,0.5,0.1,0.7,0.3h-9.3v-3L91.3,62.2z"/>
		<path class="st14" d="M108.9,64c0,0.3,0.1,0.6,0.1,0.9c0,4.5,0,9.1,0,13.6c0,0.6,0.1,0.9,0.8,0.8c0.9-0.1,1.8,0,2.7,0h0.1
			c0,0,0,0.1,0,0.1h-3.7c0-0.1,0-0.3,0-0.4V64.6C108.8,64.4,108.8,64.2,108.9,64z"/>
		<path class="st15" d="M68.1,57c-5.9-0.6-11.8-0.1-17.8-0.3c0,0,0-0.1,0-0.1c1.3,0,2.7,0,4,0c4,0,8,0,12,0
			C67,56.7,67.6,56.8,68.1,57z"/>
		<path class="st16" d="M113,65.1c0.2-0.1,0.4-0.3,0.6-0.3c1.5,0,3.1,0,4.6,0c1,0.1,2,0.6,2.5,1.5c0.2,0.3,0.1,0.7,0.1,1.1
			c-0.7-2.1-1.8-2.4-3.7-2.4C115.7,65.1,114.3,65.1,113,65.1z"/>
		<path class="st9" d="M124.5,79.4l-2.9-0.2c0.7,0,1.3-0.1,2,0s0.9-0.2,0.9-0.9c0-3.6,0-7.2,0-10.8c0-0.2,0-0.5,0-0.7
			c0,0.3,0.1,0.6,0.1,0.8c0,3.7,0,7.4,0,11.1C124.6,79,124.6,79.2,124.5,79.4z"/>
		<path class="st17" d="M18.5,56.7H4.3c0.3-0.1,0.6-0.1,0.9-0.2c4,0,8.1,0,12.1,0C17.7,56.6,18.1,56.7,18.5,56.7z"/>
		<path class="st4" d="M75.1,79.3L75,66c0-0.1,0-0.2,0.1-0.3v13.2C75.1,79,75.1,79.2,75.1,79.3z"/>
		<path class="st18" d="M6.5,71.3c0.1-0.1,0.3-0.1,0.5-0.1c3.8,0,7.5,0,11.3,0c-0.2,0.1-0.5,0.1-0.8,0.1
			C13.9,71.3,10.2,71.3,6.5,71.3z"/>
		<path class="st19" d="M92.6,79.3H104c-0.3,0.1-0.5,0.1-0.8,0.2c-3.2,0-6.4,0-9.6,0C93.3,79.4,92.9,79.3,92.6,79.3z"/>
		<path class="st20" d="M91.3,62.2l-0.3-0.1l5.3,0c1.4,0,2.9,0,4.3,0c0.4,0,0.8,0.1,1.1,0.2L91.3,62.2z"/>
		<path class="st7" d="M39.9,56.2h-7.3c0.6-0.1,1.3-0.1,1.9-0.2C36.3,56,38.1,56.1,39.9,56.2z"/>
		<path class="st7" d="M66.6,76.1h-9.7c2,0,4.1,0,6.1,0C64.2,76,65.3,76.1,66.6,76.1z"/>
		<path class="st19" d="M101.7,68.7c-0.1,0.1-0.3,0.1-0.4,0.1c-2.8,0-5.6,0-8.4,0c0.2-0.1,0.4-0.1,0.6-0.1
			C96.2,68.7,99,68.7,101.7,68.7z"/>
		<path class="st21" d="M119.8,62.2h-9c0.2-0.1,0.4-0.1,0.6-0.1c2.5,0,5,0,7.5,0C119.2,62.1,119.5,62.2,119.8,62.2z"/>
		<path class="st21" d="M82.3,62.2h-9c0.2-0.1,0.4-0.1,0.6-0.1h7.7C81.8,62.1,82,62.2,82.3,62.2z"/>
		<path class="st18" d="M6.4,71.8L6.4,71.8v7.5l-0.1-0.1L6.4,71.8z"/>
		<path class="st7" d="M33.1,79.2h6.2c-0.9,0-1.8,0.1-2.8,0.1c-1.2,0-2.5-0.1-3.8-0.2L33.1,79.2z"/>
		<path class="st7" d="M89.9,72.1c0,1.2,0,2.5,0,3.7C89.9,74.6,89.9,73.4,89.9,72.1z"/>
		<path class="st18" d="M2.2,79.2h4.2l0.1,0.1c-0.6,0-1.2,0.1-1.7,0.1s-1.4,0-2.1,0C2.5,79.4,2.3,79.3,2.2,79.2z"/>
		<path class="st14" d="M50.4,56.6c0,0,0,0.1,0,0.1c-0.1,0.1-0.3,0.1-0.2,0.2c0,1-0.3,2,0.2,3c-0.1-0.1-0.4-0.2-0.4-0.3
			c0-0.9,0-1.8,0-2.6C50,56.8,50.2,56.7,50.4,56.6z"/>
		<path class="st22" d="M4.2,56.7l-1.6,1.2C2.9,57.3,3.5,56.8,4.2,56.7z"/>
		<path class="st22" d="M33.1,79.2h-0.3L31.1,79c0.5,0,0.9,0,1.4,0C32.7,79,32.9,79.1,33.1,79.2z"/>
		<path class="st23" d="M120.2,52.4c0.6,0.1,1.2,0.2,1.4,0.9L120.2,52.4z"/>
		<path class="st12" d="M105.5,65.8c-0.4-0.5-0.6-1.1-0.6-1.7L105.5,65.8z"/>
		<path class="st23" d="M123.2,54.2l0.8,0.5l-0.5,0.3C123.8,54.5,123.3,54.4,123.2,54.2z"/>
		<path class="st7" d="M32.5,56.2c-0.2,0.1-0.5,0.2-0.8,0.3c-0.3,0-0.6,0-0.8,0L32.5,56.2z"/>
		<path class="st7" d="M56.5,76.1c-0.4,0-0.8,0-1.2,0c-0.2,0-0.3-0.2-0.5-0.2L56.5,76.1z"/>
		<path class="st23" d="M121.6,53.3l0.9,0.5L121.6,53.3z"/>
		<path class="st22" d="M30,78.7l1,0.3L30,78.7z"/>
		<path class="st15" d="M68.8,57.9l-0.5-0.8L68.8,57.9z"/>
		<path class="st23" d="M119.6,52.1l0.6,0.3L119.6,52.1z"/>
		<path class="st23" d="M122.6,53.9l0.5,0.3L122.6,53.9z"/>
		<path class="st24" d="M6.5,67.9h8.9c0.3,0,0.6-0.1,0.9-0.1C16.2,67.9,16,68,15.9,68h-9C6.7,68,6.6,67.9,6.5,67.9z"/>
		<path class="st25" d="M6.4,79.2H6.2c0-2.2,0-4.5,0-6.7c0-0.2,0.1-0.5,0.1-0.7C6.4,74.3,6.4,76.8,6.4,79.2z"/>
		<path class="st25" d="M6.3,61.3v6.2H6.3L6.3,61.3L6.3,61.3z"/>
		<path class="st24" d="M16.7,67.6l0.8-0.5L16.7,67.6z"/>
		<path class="st15" d="M94,75.7c0.4,0.5,1.1,0.8,1.8,0.8c1.9,0,3.7,0,5.6,0c-0.2,0.1-0.4,0.1-0.6,0.2c-1.9,0-3.8,0-5.7,0
			C94.3,76.6,94,76.3,94,75.7z"/>
		<path class="st14" d="M101.7,71.6h-6c-0.3,0-0.6,0-0.9,0c0.1-0.1,0.3-0.2,0.4-0.2h6.1C101.5,71.4,101.6,71.5,101.7,71.6z"/>
		<path class="st20" d="M101.6,76.4c0.1-0.3,0.2-0.6,0.3-0.9c0-1.2,0-2.5,0-3.7c0,0.6,0.1,1.1,0.1,1.7c0,0.8,0,1.6,0,2.4
			C102,76,101.7,76.2,101.6,76.4z"/>
		<path class="st25" d="M112.5,79.2h-0.1V65.9h0.1V79.2z"/>
		<circle class="st26" cx="68.9" cy="68.9" r="68.4"/>
	</g>
</g>
</svg>
