<?xml version="1.0" encoding="utf-8"?>
<!-- Generator: Adobe Illustrator 25.0.1, SVG Export Plug-In . SVG Version: 6.00 Build 0)  -->
<svg version="1.1" id="trace" xmlns="http://www.w3.org/2000/svg" xmlns:xlink="http://www.w3.org/1999/xlink" x="0px" y="0px"
	 viewBox="0 0 283.46 283.46" xml:space="preserve">
<rect x="65.17" y="118.94" width="11.81" height="30.9"/>
<circle cx="85.96" cy="124.98" r="7.09"/>
<path d="M115.96,138.64l11.47,0c-1.84,6.99-8.2,12.15-15.77,12.15c-9,0-16.3-7.3-16.3-16.3s7.3-16.3,16.3-16.3s16.3,7.3,16.3,16.3
	l-22.98,0.07l0.02,2.34c0,0,0.07,5.11,5.99,5.07C115.45,141.92,115.65,139.78,115.96,138.64z"/>
<path d="M193.63,138.35l11.47,0c-1.84,6.99-8.2,12.15-15.77,12.15c-9,0-16.3-7.3-16.3-16.3s7.3-16.3,16.3-16.3
	c9,0,16.3,7.3,16.3,16.3l-22.98,0.07l0.02,2.34c0,0,0.07,5.11,5.99,5.07C193.12,141.64,193.32,139.5,193.63,138.35z"/>
<rect x="210.45" y="107.98" width="11.62" height="41.81"/>
<path d="M144.63,121.3c2.36-1.44,5.14-2.27,8.11-2.27c8.61,0,15.59,6.98,15.59,15.59s-6.98,15.59-15.59,15.59
	c-3,0-5.81-0.85-8.19-2.32l-0.01,2.09h-11.1l-0.05-41.76l11.34,0.14L144.63,121.3z M153.25,128.21c-0.73-0.25-1.51-0.39-2.33-0.39
	c-3.91,0-7.09,3.17-7.09,7.09c0,3.91,3.17,7.09,7.09,7.09c3.91,0,7.09-3.17,7.09-7.09C158.01,131.81,156.02,129.17,153.25,128.21"/>
</svg>
