<?xml version="1.0" encoding="utf-8"?>
<!-- Generator: Adobe Illustrator 25.0.1, SVG Export Plug-In . SVG Version: 6.00 Build 0)  -->
<svg version="1.1" id="Layer_1" xmlns="http://www.w3.org/2000/svg" xmlns:xlink="http://www.w3.org/1999/xlink" x="0px" y="0px"
	 viewBox="0 0 283.46 283.46" style="enable-background:new 0 0 283.46 283.46;" xml:space="preserve">
<g>
	<g>
		<g>
			<path d="M260.15,183.2H23.56c-2.06,0-4.02-1.15-4.02-7.35l-1.31-97.3c0-6.2,3.27-6.91,5.66-6.91l130.23,0.55
				c0.33,0,0.49,0.64,0.49,1.28s-0.16,1.5-0.49,1.5L23.89,74.43c-1.81,0-4.59-0.57-4.59,4.13l1.31,97.08c0,4.7,1.47,4.57,3.28,4.57
				h236.58c1.81,0,3.59,0.54,3.59-4.16l0.01-97.69c0-4.7-1.79-3.93-3.6-3.93l-84.91,0.22c-0.33,0-0.49-0.64-0.49-1.28
				c0-0.64,0.25-1.28,0.49-1.28l85-0.22c2.39,0,4.67,0.51,4.67,6.71l-0.01,97.69C265.22,182.46,262.95,183.2,260.15,183.2z"/>
		</g>
	</g>
	<g>
		<g>
			<g>
				<path d="M148.17,113.62c-1.29,3.73-2.58,7.31-3.73,11.04c-0.86,2.72,0.29,4.59,3.15,4.88c1.72,0.14,3.3,0.29,5.02,0.57
					c5.02,0.57,10.18,1.15,15.34,1.72c1.86,0.14,3.44-1.58,3.3-3.58c-0.43-4.01-0.86-8.17-1.29-12.19c0-0.72-0.43-0.72-1-0.86
					c-6.45-0.72-12.9-1.43-19.36-2.15c-0.14,0-0.14,0-0.29,0C148.6,112.9,148.31,113.19,148.17,113.62"/>
			</g>
		</g>
		<g>
			<g>
				<path d="M155.77,91.68c-0.86,2.58-1.72,5.16-2.72,7.74c-0.72,2.29-1.58,4.59-2.44,7.03c6.17,0.72,12.33,1.29,18.35,2.01
					c0-0.29,0-0.43,0-0.72c-0.43-5.02-0.86-9.89-1.29-14.91c0-0.57-0.29-0.72-0.86-0.72c-3.44-0.43-6.88-0.72-10.18-1.15h-0.14
					C155.91,90.96,155.91,91.25,155.77,91.68"/>
			</g>
		</g>
		<g>
			<g>
				<path d="M197.06,107.6c0.43-0.86,0.86-1.58,1.29-2.44c1.72-4.01,1.86-8.17,1-12.33c-1-5.16-4.44-8.03-9.75-8.17
					c-1.43,0-2.87,0-4.44,0c-0.29,0-0.72,0-1,0c-0.57,0-1.29,0-1.86,0c-2.58,0-3.3,0.72-3.3,3.3c0,13.19,0,26.38,0,39.72
					c0,0.29,0,0.72,0,1c0.14,1.29,1.15,2.15,2.29,2.15c2.87,0,5.88,0.14,8.75,0c4.73-0.29,7.89-2.87,9.03-7.31
					C200.5,117.78,200.22,112.47,197.06,107.6z M185.88,91.39C185.88,91.39,186.02,91.39,185.88,91.39c0.43,0,0.72,0,1,0
					c1.15,0,2.29,0,3.44,0.43c1.15,0.43,1.86,1.43,2.15,2.58c0.57,2.15,0.57,4.3,0,6.45c-0.43,2.01-1.58,3.01-3.58,3.15
					c-1,0.14-1.86,0-3.01,0V91.39z M192.47,120.79c-0.57,2.01-1.86,2.87-3.87,3.01c-0.29,0-0.72,0-1,0c-0.57,0-1.15,0-1.72,0v-12.76
					c1.15,0,2.29-0.14,3.44,0c1.72,0.14,2.72,1.29,3.15,2.87C193.05,116.2,193.05,118.49,192.47,120.79z"/>
			</g>
		</g>
		<g>
			<g>
				<path d="M210.11,84.51c-2.44,0-3.3,0.86-3.3,3.3c0,13.19,0,26.38,0,39.57c0,0.43,0,1,0.14,1.43c0.29,1.15,1.15,1.86,2.15,1.86
					c5.02,0,10.04,0,15.06,0c1.15,0,2.15-1,2.29-2.15c0-0.43,0-0.86,0-1.29c0-2.58-0.86-3.3-3.3-3.3c-3.01,0-6.17,0-9.32,0v-1.29
					V93.97c0-2.29,0-4.59,0-6.88c0-1.58-1-2.44-2.58-2.58c-0.14,0-0.29,0-0.43,0C210.54,84.51,210.4,84.51,210.11,84.51"/>
			</g>
		</g>
		<g>
			<g>
				<path d="M235.49,84.51c-2.01,0-2.87,1-2.87,2.87c0,13.48,0,26.96,0,40.43c0,2.01,1,2.87,2.87,2.87c1.29,0,2.72,0,4.01,0
					c3.01,0,5.88,0,8.89,0c3.15,0.14,4.16-0.72,4.01-4.01c-0.14-2.01-1-2.87-2.87-2.87c-2.01,0-3.87,0-5.88,0c-1,0-2.01,0-2.87,0
					h-1.15v-12.76c2.72,0,5.31,0,7.89,0c0.43,0,0.86,0,1.29-0.14c1.15-0.29,1.86-1.15,1.86-2.58c0-1.58,0.29-3.3-1.72-4.01
					c-0.29-0.14-0.72-0.14-1-0.14h-0.14c-2.72,0-5.31,0-8.03,0V91.39c3.01,0,5.88-0.14,8.75,0c3.15,0.14,4.3-0.57,4.01-4.01
					c-0.14-1.86-0.86-2.87-2.87-2.87c-2.29,0-4.59,0-6.88,0C240.22,84.51,237.93,84.51,235.49,84.51"/>
			</g>
		</g>
		<g>
			<g>
				<path d="M104.72,84.51c-3.44,0.43-6.31,2.01-7.74,5.16c-2.29,4.88-2.29,9.75,0.86,14.34c1.15,1.72,2.87,3.15,4.44,4.59
					c1.86,1.58,3.87,3.01,5.59,4.59c1.15,1,2.15,2.29,2.87,3.58c1.15,2.01,0.43,5.02-1,6.17c-2.58,1.86-6.17,0.57-6.88-2.44
					c-0.14-0.86-0.29-1.72-0.29-2.58c0.14-3.01-0.43-4.3-4.16-4.16c-1.86,0.14-2.87,1-2.87,2.87c0,1.58,0.14,3.3,0.29,4.88
					c0.72,4.88,3.44,8.03,7.89,8.89c1.43,0.29,3.01,0.43,4.44,0.29c3.87-0.29,7.31-1.72,8.75-5.59c2.15-5.31,1.72-10.32-2.15-14.77
					c-1.43-1.58-3.3-3.01-4.88-4.44c-2.01-1.72-4.01-3.44-5.88-5.31c-1.58-1.58-1.86-3.58-1.43-5.74c0.43-2.15,1.72-3.15,3.73-3.3
					c2.29-0.14,3.73,0.72,4.3,2.87c0.29,1.29,0.43,2.72,0.57,4.16c0.14,2.01,0.86,2.87,3.01,3.01c2.87,0.14,4.16-0.43,4.01-3.87
					c-0.14-1.43-0.29-2.87-0.57-4.3c-0.86-5.02-3.73-8.03-8.17-8.75c-0.86-0.14-1.72-0.14-2.58-0.14
					C106.16,84.37,105.44,84.51,104.72,84.51"/>
			</g>
		</g>
		<g>
			<g>
				<path d="M121.07,88.53c0.14,1.86,1,2.87,2.87,2.87c1.72,0,3.3,0,5.16,0v1.43v34.56c0,0.29,0,0.57,0,0.86
					c0,1.58,1,2.44,2.58,2.58c0.43,0,0.86,0,1.29,0c2.29,0,3.15-0.86,3.15-3.15c0-11.61,0-23.23,0-34.84v-1.29c2.01,0,3.73,0,5.59,0
					c1.58,0,2.44-1,2.58-2.58c0-0.43,0-0.86,0-1.29c0-2.29-0.86-3.15-3.15-3.15c-1.58,0-3.3,0-4.88,0c-3.58,0-7.17,0-10.75,0
					c-0.14,0-0.29,0-0.29,0C122.07,84.37,120.78,84.94,121.07,88.53"/>
			</g>
		</g>
		<g>
			<g>
				<path d="M34.75,86.23v33.84c0,0.29,0.14,0.72,0.14,1c0.57,4.73,3.01,8.03,7.17,9.03c2.58,0.72,5.16,0.72,7.6,0.14
					c3.15-0.72,5.59-2.72,6.6-5.88c0.57-1.86,1-3.73,1-5.59c0.14-8.17,0-16.49,0-24.66c0-2.44,0-4.73,0-7.17
					c0-1.43-0.86-2.29-2.29-2.58c-0.43,0-1,0-1.43,0c-2.29,0-3.15,0.86-3.15,3.15c0,10.18,0,20.36,0,30.54c0,1-0.14,2.01-0.43,3.01
					c-0.57,1.72-2.01,2.58-4.01,2.58c-2.01,0-3.44-1-3.87-2.72c-0.29-1-0.43-2.15-0.43-3.3c0-7.89,0-15.63,0-23.51
					c0-2.44,0-4.88,0-7.17c0-1-0.43-1.86-1.43-2.29c-0.57-0.29-1.15-0.43-1.86-0.43C36.9,84.22,35.47,84.94,34.75,86.23"/>
			</g>
		</g>
		<g>
			<g>
				<path d="M66.58,87.81c0,13.05,0,26.24,0,39.29c0,0.43,0,0.86,0,1.29c0.14,1.29,1.15,2.15,2.44,2.15c0.43,0,0.86,0,1.29,0
					c2.44,0,3.3-0.72,3.3-3.3c0-7.03,0-13.91,0-20.93h0.14c0.14,0.29,0.29,0.57,0.43,0.86c2.87,7.17,5.74,14.19,8.6,21.36
					c0.57,1.58,1.43,2.01,3.01,2.01c0.29,0,0.57,0,0.86,0c1.72,0,2.72-1,2.72-2.72c0-0.57,0-1.15,0-1.72c0-12.9,0-25.81,0-38.71
					c0-1.43-0.57-2.44-1.72-2.87c-0.43-0.14-1-0.14-1.58-0.14c-3.15,0-3.87,0.57-3.87,3.73c0,6.45,0,12.9,0,19.36c0,0.29,0,0.72,0,1
					c-0.29-0.29-0.43-0.72-0.57-1c-2.87-7.03-5.74-14.19-8.6-21.22c-0.29-0.57-0.72-1.29-1.29-1.58c-0.72-0.43-1.43-0.57-2.01-0.57
					C68.02,84.22,66.58,85.66,66.58,87.81"/>
			</g>
		</g>
		<g>
			<g>
				<path d="M164.94,64.58c-2.29,6.6-4.44,13.19-6.74,19.79c3.01,0.29,5.88,0.72,8.89,1c-0.57-7.03-1.29-13.91-1.86-20.79
					C165.09,64.58,165.09,64.58,164.94,64.58z"/>
			</g>
		</g>
	</g>
	<g>
		<path d="M77.53,150.59c1.86,0,3.58,0.43,5.16,1.58c0.72,0.57,1.86,0.43,2.44-0.14l0,0c0.86-0.86,0.72-2.15-0.14-2.87
			c-2.01-1.43-4.59-2.29-7.6-2.29c-7.17,0-12.47,5.02-12.47,11.76c0,6.88,5.31,11.76,12.33,11.76c2.87,0,6.02-0.86,8.32-2.44
			c0.43-0.29,0.72-0.86,0.72-1.43v-7.31c0-0.57-0.43-1-1-1h-6.88c-0.86,0-1.58,0.72-1.58,1.58l0,0c0,0.86,0.72,1.58,1.58,1.58h3.87
			v4.01c-1.43,0.86-3.01,1.15-4.73,1.15c-4.88,0-8.32-3.44-8.32-8.03C69.21,153.88,72.65,150.59,77.53,150.59z"/>
		<path d="M105.63,148.58l-8.46,18.64c-0.57,1.29,0.43,2.72,1.86,2.72l0,0c0.86,0,1.58-0.43,1.86-1.15l1.72-4.16h11.47l1.72,4.16
			c0.29,0.72,1,1.15,1.86,1.15h0.14c1.43,0,2.44-1.43,1.86-2.72l-8.6-18.64c-0.43-0.86-1.29-1.43-2.15-1.43h-1.15
			C106.78,147.14,105.92,147.72,105.63,148.58z M104.05,161.34l4.3-10.04l4.3,10.04H104.05z"/>
		<path d="M151.94,148.15l-8.32,14.19l-8.6-14.19c-0.29-0.57-1-1-1.72-1h-0.43c-1.15,0-2.01,0.86-2.01,2.01v18.93
			c0,1.15,0.86,2.01,2.01,2.01l0,0c1.15,0,2.01-0.86,2.01-2.01v-13.05l7.03,11.61c0.29,0.57,0.86,0.86,1.43,0.86l0,0
			c0.57,0,1.15-0.29,1.43-0.86l7.03-11.76v13.19c0,1.15,0.86,2.01,2.01,2.01l0,0c1.15,0,2.01-0.86,2.01-2.01v-18.93
			c0-1.15-0.86-2.01-2.01-2.01h-0.14C152.95,147.14,152.23,147.43,151.94,148.15z"/>
		<path d="M173.74,160.19h9.32c1,0,1.72-0.72,1.72-1.72l0,0c0-1-0.72-1.72-1.72-1.72h-9.32v-6.02h10.75c1,0,1.72-0.72,1.72-1.72l0,0
			c0-1-0.72-1.72-1.72-1.72H171.3c-1,0-1.72,0.72-1.72,1.72v19.5c0,1,0.72,1.72,1.72,1.72h13.76c1,0,1.72-0.72,1.72-1.72l0,0
			c0-1-0.72-1.72-1.72-1.72h-11.33V160.19z"/>
		<path d="M201.41,153.45c0-1.72,1.43-3.15,5.02-3.15c1.43,0,3.15,0.29,4.73,1c0.86,0.43,2.01,0,2.44-1l0,0c0.43-0.86,0-2.01-1-2.29
			c-1.86-0.72-4.01-1.15-6.02-1.15c-6.31,0-9.18,3.15-9.18,6.88c0,8.46,13.62,5.31,13.62,10.18c0,1.72-1.58,3.01-5.02,3.01
			c-2.15,0-4.3-0.57-6.02-1.43c-0.86-0.43-2.01-0.14-2.44,0.86l0,0c-0.43,0.86,0,1.86,0.72,2.29c2.01,1.15,4.88,1.86,7.74,1.86
			c6.31,0,9.32-3.15,9.32-6.88C215.03,155.17,201.41,158.33,201.41,153.45z"/>
	</g>
</g>
</svg>
