<svg id="Layer_1" enable-background="new 0 0 511.973 511.973" height="512" viewBox="0 0 511.973 511.973" width="512" xmlns="http://www.w3.org/2000/svg"><g><path d="m139.531 352.629-128 36.98c-14.529 4.198-15.625 24.474-1.595 30.189l58.434 23.804 23.805 58.434c5.71 14.022 25.987 12.947 30.188-1.595l36.98-128c3.49-12.072-7.718-23.307-19.812-19.812zm-35.114 94.639-8.953-21.978c-1.625-3.99-4.791-7.156-8.781-8.782l-21.978-8.953 55.847-16.135z"/><path d="m439.973 240h-320c-22.056 0-40-17.944-40-40s17.944-40 40-40h332.305c5.542 9.555 15.877 16 27.695 16 17.645 0 32-14.355 32-32 0-11.818-6.445-22.153-16-27.695 0-10 0-89.226 0-100.305 0-8.836-7.163-16-16-16h-72c-8.837 0-16 7.164-16 16v56c0 8.836 7.163 16 16 16h56v28.305c-4.844 2.81-8.885 6.851-11.695 11.695h-332.305c-39.701 0-72 32.299-72 72s32.299 72 72 72h320c22.056 0 40 17.944 40 40s-17.944 40-40 40h-240c-8.837 0-16 7.164-16 16s7.163 16 16 16h240c39.701 0 72-32.299 72-72s-32.299-72-72-72zm-16-184v-24h40v24z"/></g></svg>