<svg id="Layer_5" enable-background="new 0 0 64 64" height="512" viewBox="0 0 64 64" width="512" xmlns="http://www.w3.org/2000/svg"><g><g><g><path d="m12 2v16h-4v-8-8z" fill="#ffeaa7"/></g><g><path d="m8 38h4v24h-4z" fill="#ffeaa7"/></g><g><path d="m50 14v-12h-34v60h46v-48z" fill="#e6e9ed"/></g><g><path d="m46 18h12v8h-12z" fill="#69d6f4"/></g><g><path d="m62 14h-12v-12z" fill="#b4dd7f"/></g><g><path d="m8 10v8h-2c-1.1 0-2.1-.45-2.83-1.17-.72-.73-1.17-1.73-1.17-2.83 0-2.21 1.79-4 4-4z" fill="#aab2bd"/></g><g><path d="m12 38h4v24h-4z" fill="#aab2bd"/></g><g><path d="m12 2h4v16h-4z" fill="#aab2bd"/></g><g><path d="m36 6h4v4h-4z" fill="#aab2bd"/></g><g><path d="m28 6h4v4h-4z" fill="#aab2bd"/></g><g><path d="m20 6h4v4h-4z" fill="#aab2bd"/></g><g><path d="m42 30.16v3.84c0 2.21-1.79 4-4 4h-6.63-15.37-4-4-2c-2.21 0-4-1.79-4-4v-20c0 1.1.45 2.1 1.17 2.83.73.72 1.73 1.17 2.83 1.17h2 4 4 22c2.21 0 4 1.79 4 4z" fill="#fcd770"/></g><g><path d="m56.77 38.28c.79 1.75 1.23 3.68 1.23 5.72 0 7.73-6.27 14-14 14-2.04 0-3.97-.44-5.72-1.23l5.58-9.78c.05.01.09.01.14.01 1.66 0 3-1.34 3-3 0-.05 0-.09-.01-.14z" fill="#69d6f4"/></g><g><path d="m49.72 31.23-5.58 9.78c-.05-.01-.09-.01-.14-.01-1.66 0-3 1.34-3 3 0 .05 0 .09.01.14l-9.78 5.58c-.79-1.75-1.23-3.68-1.23-5.72 0-2.15.5-4.18 1.37-6h6.63c2.21 0 4-1.79 4-4v-3.84c.65-.09 1.32-.16 2-.16 2.04 0 3.97.44 5.72 1.23z" fill="#69d6f4"/></g><g><path d="m41.88 46.12c.51.51 1.21.84 1.98.87l-5.58 9.78c-1.57-.69-2.98-1.68-4.18-2.87z" fill="#aab2bd"/></g><g><path d="m41.01 44.14c.03.77.36 1.47.87 1.98l-7.78 7.78c-1.19-1.2-2.18-2.61-2.87-4.18z" fill="#aab2bd"/></g><g><path d="m56.77 38.28-9.78 5.58c-.03-.77-.36-1.47-.87-1.98l7.78-7.78c1.19 1.2 2.18 2.61 2.87 4.18z" fill="#aab2bd"/></g><g><path d="m46.12 41.88c-.51-.51-1.21-.84-1.98-.87l5.58-9.78c1.57.69 2.98 1.68 4.18 2.87z" fill="#aab2bd"/></g></g><g><path d="m50.414 1h-43.414v8h-1c-2.757 0-5 2.243-5 5v20c0 2.757 2.243 5 5 5h1v24h56v-49.414zm.586 3.414 8.586 8.586h-8.586zm-38 12.586v-14h2v14zm-2-14v14h-2v-14zm-5 8h1v6h-1c-1.654 0-3-1.346-3-3s1.346-3 3-3zm-3 23v-16.002c.836.629 1.875 1.002 3 1.002h32c1.654 0 3 1.346 3 3v12c0 1.654-1.346 3-3 3h-32c-1.654 0-3-1.346-3-3zm40 0v-2.949c.352-.031.685-.051 1-.051 1.502 0 2.939.269 4.283.74l-4.747 8.307c-1.831.215-3.273 1.658-3.489 3.489l-8.307 4.747c-.471-1.344-.74-2.781-.74-4.283 0-1.723.36-3.399 1.034-5h5.966c2.757 0 5-2.243 5-5zm14 10c0 7.168-5.832 13-13 13-1.502 0-2.939-.269-4.283-.74l4.747-8.307c1.831-.215 3.273-1.658 3.489-3.489l8.307-4.747c.471 1.344.74 2.781.74 4.283zm-16.631 1.655c.058.126.128.245.198.364l-6.428 6.428c-.611-.712-1.15-1.486-1.598-2.319zm3.631-3.655c1.103 0 2 .897 2 2s-.897 2-2 2-2-.897-2-2 .897-2 2-2zm-2.019 5.433c.119.07.238.14.364.198l-4.473 7.828c-.833-.447-1.607-.987-2.319-1.598zm5.65-5.088c-.058-.126-.128-.245-.198-.364l6.428-6.428c.611.712 1.15 1.486 1.598 2.319zm-1.612-1.778c-.119-.07-.238-.14-.364-.198l4.473-7.828c.833.447 1.607.987 2.319 1.598zm-31.019-1.567v22h-2v-22zm-6 0h2v22h-2zm8 22v-22h12.875c-.577 1.611-.875 3.286-.875 5 0 8.271 6.729 15 15 15s15-6.729 15-15-6.729-15-15-15c-.323 0-.652.014-1 .041v-7.041c0-2.757-2.243-5-5-5h-21v-14h32v12h12v46z"/><path d="m7 23h3v10h-3v2h8v-2h-3v-10h3v-2h-8z"/><path d="m25 24.905c0-2.153-1.752-3.905-3.905-3.905h-.189c-2.154 0-3.906 1.752-3.906 3.905 0 1.684 1.073 3.173 2.671 3.705l2.025.676c.781.261 1.304.987 1.304 1.809 0 1.051-.854 1.905-1.905 1.905h-.189c-1.052 0-1.906-.854-1.906-1.905v-1.095h-2v1.095c0 2.153 1.752 3.905 3.905 3.905h.189c2.154 0 3.906-1.752 3.906-3.905 0-1.684-1.073-3.173-2.671-3.705l-2.025-.676c-.781-.261-1.304-.987-1.304-1.809 0-1.051.854-1.905 1.905-1.905h.189c1.052 0 1.906.854 1.906 1.905v.095z"/><path d="m32 21c-2.757 0-5 2.243-5 5v4c0 2.757 2.243 5 5 5s5-2.243 5-5v-4c0-2.757-2.243-5-5-5zm3 9c0 1.654-1.346 3-3 3s-3-1.346-3-3v-4c0-1.654 1.346-3 3-3s3 1.346 3 3z"/><path d="m19 11h6v-6h-6zm2-4h2v2h-2z"/><path d="m27 11h6v-6h-6zm2-4h2v2h-2z"/><path d="m35 11h6v-6h-6zm2-4h2v2h-2z"/><path d="m54.135 48.283-1.842-.779c-.232.548-.522 1.078-.862 1.577l1.652 1.127c.414-.607.769-1.255 1.052-1.925z"/><path d="m49.946 53.255c.613-.395 1.191-.854 1.718-1.365l-1.393-1.436c-.432.42-.905.796-1.407 1.119z"/><path d="m55 44h-2c0 .601-.06 1.202-.178 1.789l1.961.395c.144-.717.217-1.452.217-2.184z"/><path d="m19 41h8v2h-8z"/><path d="m19 45h8v2h-8z"/><path d="m19 49h8v2h-8z"/><path d="m19 53h8v2h-8z"/><path d="m19 57h8v2h-8z"/><path d="m29 57h2v2h-2z"/><path d="m45 27h14v-10h-14zm2-8h10v6h-10z"/></g></g></svg>