<?xml version="1.0"?>
<svg xmlns="http://www.w3.org/2000/svg" width="512" height="512" viewBox="0 0 512 512"><g><path d="M232,128H208a8,8,0,0,0-8,8v80a8,8,0,0,0,8,8h24a8,8,0,0,0,8-8V136A8,8,0,0,0,232,128Zm-8,80h-8V144h8Z"/><path d="M304,128H280a8,8,0,0,0-8,8v80a8,8,0,0,0,8,8h24a8,8,0,0,0,8-8V136A8,8,0,0,0,304,128Zm-8,80h-8V144h8Z"/><path d="M480,344V80a24,24,0,0,0-48,0V344h-8V328a8,8,0,0,0-8-8H392V36A28.031,28.031,0,0,0,364,8H148a28.031,28.031,0,0,0-28,28V320H96a8,8,0,0,0-8,8v16H80V80a24,24,0,0,0-48,0V344a24,24,0,0,0,0,48v40a8,8,0,0,0,8,8H72a8,8,0,0,0,8-8V392h8v16a8,8,0,0,0,8,8h24v60a28.031,28.031,0,0,0,28,28H364a28.031,28.031,0,0,0,28-28V416h24a8,8,0,0,0,8-8V392h8v40a8,8,0,0,0,8,8h32a8,8,0,0,0,8-8V392a24,24,0,0,0,0-48ZM48,80a8,8,0,0,1,16,0V96H48Zm0,32H64v8H48Zm0,24H64V344H48ZM64,424H48V392H64Zm24-48H32a8,8,0,0,1,0-16H88Zm32,24H104V336h16Zm88,88a32.036,32.036,0,0,1,32-32h32a32.036,32.036,0,0,1,32,32Zm168-12a12.01,12.01,0,0,1-12,12H320a48.051,48.051,0,0,0-48-48H240a48.051,48.051,0,0,0-48,48H148a12.01,12.01,0,0,1-12-12V36a12.01,12.01,0,0,1,12-12H364a12.01,12.01,0,0,1,12,12Zm32-76H392V336h16ZM448,80a8,8,0,0,1,16,0V96H448Zm0,32h16v8H448Zm0,24h16V344H448Zm16,288H448V392h16Zm16-48H424V360h56a8,8,0,0,1,0,16Z"/><path d="M324,96h-4a48.051,48.051,0,0,0-48-48H240a48.051,48.051,0,0,0-48,48h-4a28.031,28.031,0,0,0-28,28V260a28.031,28.031,0,0,0,28,28H324a28.031,28.031,0,0,0,28-28V124A28.031,28.031,0,0,0,324,96ZM240,64h32a32.036,32.036,0,0,1,32,32H208A32.036,32.036,0,0,1,240,64Zm24,208H248v-8a8,8,0,0,1,16,0Zm72-12a12.01,12.01,0,0,1-12,12H280v-8a24,24,0,0,0-48,0v8H188a12.01,12.01,0,0,1-12-12V124a12.01,12.01,0,0,1,12-12H324a12.01,12.01,0,0,1,12,12Z"/></g></svg>
