<?xml version="1.0" encoding="iso-8859-1"?>
<!-- Generator: Adobe Illustrator 19.0.0, SVG Export Plug-In . SVG Version: 6.00 Build 0)  -->
<svg version="1.1" id="Capa_1" xmlns="http://www.w3.org/2000/svg" xmlns:xlink="http://www.w3.org/1999/xlink" x="0px" y="0px"
	 viewBox="0 0 215.052 215.052" style="enable-background:new 0 0 215.052 215.052;" xml:space="preserve">
<rect x="131.642" y="3.401" style="fill:#777777;" width="75.093" height="204.8"/>
<path d="M206.74,211.627h-75.093c-1.884,0-3.413-1.529-3.413-3.413V3.413c0-1.884,1.529-3.413,3.413-3.413h75.093
	c1.884,0,3.413,1.529,3.413,3.413v204.8C210.154,210.099,208.626,211.627,206.74,211.627z M135.06,204.8h68.267V6.827H135.06V204.8z
	"/>
<path d="M162.367,211.627c-1.884,0-3.413-1.529-3.413-3.413V3.413c0-1.884,1.529-3.413,3.413-3.413s3.413,1.529,3.413,3.413v204.8
	C165.78,210.099,164.253,211.627,162.367,211.627z"/>
<path style="fill:#DDDDDD;" d="M113.995,180.378c6.24,4.842,20.511,33.447,29.283,31.116c9.906-2.633,12.288-25.677,5.32-51.47
	c-6.967-25.793-11.085-45.776-22.19-49.065c-4.273-1.265-12.962-3.854-22.178,1.615c-9.216,5.468-38.349,5.468-47.565,0
	c-9.216-5.468-17.905-2.879-22.178-1.615c-11.105,3.289-15.223,23.27-22.19,49.065c-6.967,25.793-4.586,48.838,5.32,51.47
	c8.772,2.331,23.043-26.274,29.283-31.116c4.321-3.354,16.625-3.692,24.685-3.582l20.89-0.015
	C100.294,176.816,110.208,177.439,113.995,180.378z"/>
<path d="M18.669,215.045c-0.643,0-1.287-0.082-1.93-0.253c-3.123-0.829-5.704-2.976-7.668-6.381
	c-5.536-9.591-5.565-28.935-0.07-49.277c0.717-2.656,1.403-5.248,2.072-7.769c6.18-23.33,10.644-40.187,22.446-43.68
	c4.688-1.388,14.404-4.268,24.888,1.952c8.24,4.886,35.84,4.89,44.08,0c10.481-6.219,20.195-3.34,24.866-1.958
	c11.824,3.5,16.288,20.357,22.468,43.687c0.669,2.521,1.355,5.113,2.072,7.769c5.495,20.342,5.466,39.685-0.07,49.277
	c-1.964,3.405-4.545,5.552-7.668,6.381c-8.057,2.169-16.254-9.723-24.18-21.197c-3.113-4.511-6.332-9.172-8.071-10.522h-0.002
	c-1.089-0.845-5.161-2.816-19.444-2.881l-20.871,0.015c-16.751-0.23-21.388,1.929-22.596,2.865
	c-1.741,1.35-4.958,6.011-8.071,10.522C33.626,204.153,26.107,215.045,18.669,215.045z M44.518,112.643
	c-3.7,0-6.869,0.94-9.039,1.582c-8.144,2.412-12.409,18.509-17.809,38.888c-0.671,2.529-1.36,5.135-2.08,7.799
	c-5.736,21.241-4.441,37.446-0.608,44.083c1.026,1.775,2.207,2.852,3.511,3.198c3.447,0.911,12.802-12.677,16.809-18.48
	c3.874-5.608,6.932-10.039,9.506-12.035c3.973-3.084,12.742-4.5,26.825-4.299l20.84-0.015c16.282,0.073,21.275,2.497,23.617,4.313
	c2.572,1.997,5.632,6.427,9.504,12.035c4.006,5.799,13.387,19.338,16.809,18.48c1.304-0.346,2.485-1.423,3.511-3.198
	c3.831-6.637,5.129-22.842-0.608-44.083c-0.72-2.666-1.41-5.27-2.08-7.799c-5.4-20.379-9.663-36.477-17.785-38.881
	c-4.052-1.201-11.551-3.418-19.468,1.275c-10.257,6.086-40.789,6.086-51.046,0C51.266,113.336,47.696,112.643,44.518,112.643z"/>
<rect x="42.895" y="129.712" width="6.827" height="27.307"/>
<path d="M112.874,160.427c-8.47,0-15.36-6.89-15.36-15.36s6.89-15.36,15.36-15.36s15.36,6.89,15.36,15.36
	S121.344,160.427,112.874,160.427z M112.874,136.533c-4.705,0-8.533,3.828-8.533,8.533c0,4.705,3.828,8.533,8.533,8.533
	s8.533-3.828,8.533-8.533C121.407,140.361,117.579,136.533,112.874,136.533z"/>
<circle style="fill:#EE5281;" cx="187.962" cy="29.018" r="8.533"/>
<path d="M187.967,40.96c-6.586,0-11.947-5.361-11.947-11.947s5.361-11.947,11.947-11.947s11.947,5.361,11.947,11.947
	S194.555,40.96,187.967,40.96z M187.967,23.893c-2.823,0-5.12,2.297-5.12,5.12s2.297,5.12,5.12,5.12c2.823,0,5.12-2.297,5.12-5.12
	S190.791,23.893,187.967,23.893z"/>
<circle style="fill:#83D816;" cx="187.962" cy="59.738" r="8.533"/>
<path d="M187.967,71.68c-6.586,0-11.947-5.361-11.947-11.947s5.361-11.947,11.947-11.947s11.947,5.361,11.947,11.947
	S194.555,71.68,187.967,71.68z M187.967,54.613c-2.823,0-5.12,2.297-5.12,5.12s2.297,5.12,5.12,5.12c2.823,0,5.12-2.297,5.12-5.12
	S190.791,54.613,187.967,54.613z"/>
<circle style="fill:#DDDDDD;" cx="162.362" cy="92.165" r="10.24"/>
<path d="M162.367,105.813c-7.528,0-13.653-6.125-13.653-13.653s6.125-13.653,13.653-13.653c7.528,0,13.653,6.125,13.653,13.653
	S169.897,105.813,162.367,105.813z M162.367,85.333c-3.765,0-6.827,3.062-6.827,6.827c0,3.765,3.062,6.827,6.827,6.827
	s6.827-3.062,6.827-6.827C169.194,88.395,166.132,85.333,162.367,85.333z"/>
<circle style="fill:#DDDDDD;" cx="162.362" cy="133.125" r="10.24"/>
<path d="M162.367,146.773c-7.528,0-13.653-6.125-13.653-13.653c0-7.528,6.125-13.653,13.653-13.653
	c7.528,0,13.653,6.125,13.653,13.653C176.02,140.648,169.897,146.773,162.367,146.773z M162.367,126.293
	c-3.765,0-6.827,3.062-6.827,6.827c0,3.765,3.062,6.827,6.827,6.827s6.827-3.062,6.827-6.827
	C169.194,129.355,166.132,126.293,162.367,126.293z"/>
<rect x="32.655" y="139.952" width="27.307" height="6.827"/>
<g>
</g>
<g>
</g>
<g>
</g>
<g>
</g>
<g>
</g>
<g>
</g>
<g>
</g>
<g>
</g>
<g>
</g>
<g>
</g>
<g>
</g>
<g>
</g>
<g>
</g>
<g>
</g>
<g>
</g>
</svg>
