<svg height="512pt" viewBox="0 0 512 512" width="512pt" xmlns="http://www.w3.org/2000/svg"><path d="m256 103.730469c84.070312 0 152.269531 68.199219 152.269531 152.269531s-68.199219 152.269531-152.269531 152.269531-152.269531-68.199219-152.269531-152.269531 68.199219-152.269531 152.269531-152.269531zm0 0" fill="#649ae8"/><path d="m504.441406 215.929688v80.140624h-60.347656c-4.886719 23.402344-14.105469 45.203126-26.765625 64.59375l42.714844 42.636719-56.742188 56.742188-42.636719-42.714844c-19.390624 12.660156-41.191406 21.878906-64.59375 26.765625v60.347656h-80.140624v-60.347656c-23.402344-4.886719-45.203126-14.105469-64.597657-26.765625l-42.636719 42.714844-56.738281-56.742188 42.714844-42.636719c-12.660156-19.390624-21.878906-41.191406-26.765625-64.59375h-60.347656v-80.140624h60.347656c4.886719-23.402344 14.105469-45.203126 26.765625-64.597657l-42.714844-42.636719 56.742188-56.738281 42.636719 42.714844c19.390624-12.660156 41.191406-21.878906 64.59375-26.765625v-60.347656h80.140624v60.347656c23.402344 4.886719 45.203126 14.105469 64.597657 26.765625l42.636719-42.714844 56.738281 56.742188-42.714844 42.636719c12.660156 19.390624 21.878906 41.191406 26.765625 64.59375zm-96.171875 40.070312c0-84.070312-68.199219-152.269531-152.269531-152.269531s-152.269531 68.199219-152.269531 152.269531c0 84.066406 68.199219 152.269531 152.269531 152.269531s152.269531-68.199219 152.269531-152.269531zm0 0" fill="#aac4da"/><path d="m183.871094 256c0-70.179688 47.589844-129.140625 112.199218-146.761719-12.785156-3.488281-26.179687-5.507812-40.070312-5.507812-84.070312 0-152.269531 68.199219-152.269531 152.269531 0 84.066406 68.199219 152.269531 152.269531 152.269531 13.890625 0 27.28125-2.023437 40.070312-5.511719-64.609374-17.621093-112.199218-76.578124-112.199218-146.757812zm0 0" fill="#2d7ab2"/><path d="m304.085938 183.871094h32.054687v96.171875h-32.054687zm0 0" fill="#ffc86b"/><path d="m239.972656 207.914062h32.054688v72.128907h-32.054688zm0 0" fill="#fd72ab"/><path d="m175.859375 231.957031h32.054687v48.085938h-32.054687zm0 0" fill="#ffc86b"/><path d="m247.984375 32.058594h16.03125v15.117187h-16.03125zm0 0" fill="#fff"/><path d="m247.984375 464.824219h16.03125v15.117187h-16.03125zm0 0" fill="#fff"/><path d="m288.058594 320.570312h16.027344v15.117188h-16.027344zm0 0" fill="#fff"/><path d="m207.914062 320.570312h16.027344v15.117188h-16.027344zm0 0" fill="#fff"/><path d="m279.585938 183.871094h-15.117188v-16.484375h-16.484375v-15.117188h31.601563zm0 0" fill="#fff"/><path d="m183.871094 152.269531h16.027344v15.117188h-16.027344zm0 0" fill="#fff"/><g fill="#231f20"><path d="m512 303.628906v-95.257812h-61.863281c-4.773438-19.742188-12.554688-38.515625-23.191407-55.957032l43.792969-43.710937-67.441406-67.441406-43.710937 43.792969c-17.441407-10.636719-36.214844-18.421876-55.957032-23.195313v-61.859375h-95.257812v61.863281c-19.742188 4.773438-38.515625 12.554688-55.957032 23.191407l-43.710937-43.792969-67.441406 67.441406 43.792969 43.710937c-10.636719 17.441407-18.421876 36.214844-23.195313 55.957032h-61.859375v95.257812h61.859375c4.773437 19.742188 12.558594 38.519532 23.195313 55.957032l-43.792969 43.710937 25.066406 25.066406 10.6875-10.691406-14.363281-14.363281 41.707031-41.632813-3.355469-5.140625c-12.4375-19.046875-21.082031-39.910156-25.699218-62.007812l-1.257813-6.015625h-58.929687v-65.023438h58.929687l1.257813-6.011719c4.617187-22.101562 13.261718-42.964843 25.699218-62.011718l3.355469-5.140625-41.707031-41.632813 46.042968-46.039062 41.628907 41.707031 5.144531-3.359375c19.042969-12.433594 39.90625-21.082031 62.007812-25.695312l6.011719-1.257813v-58.929687h65.023438v58.929687l6.015625 1.257813c22.097656 4.617187 42.960937 13.261718 62.007812 25.699218l5.140625 3.355469 41.632813-41.707031 46.042968 46.042968-41.710937 41.628907 3.359375 5.144531c12.4375 19.046875 21.082031 39.910156 25.699219 62.007812l1.253906 6.011719h58.929687v65.027344h-58.929687l-1.253906 6.011719c-4.617188 22.101562-13.265625 42.960937-25.699219 62.007812l-3.359375 5.144532 41.710937 41.628906-46.042968 46.042968-41.632813-41.707031-5.140625 3.355469c-19.046875 12.4375-39.910156 21.082031-62.007812 25.699219l-6.015625 1.257812v58.929688h-65.023438v-58.929688l-6.011719-1.257812c-22.101562-4.617188-42.964843-13.261719-62.007812-25.695313l-5.144531-3.359375-41.628907 41.707031-15.648437-15.648437-10.691406 10.6875 26.347656 26.347656 43.710937-43.792969c17.441407 10.636719 36.214844 18.417969 55.957032 23.191407v61.863281h95.257812v-61.863281c19.742188-4.773438 38.515625-12.554688 55.957032-23.191407l43.710937 43.792969 67.441406-67.441406-43.792969-43.710937c10.636719-17.441407 18.417969-36.214844 23.191407-55.957032zm0 0"/><path d="m96.171875 256c0 88.128906 71.699219 159.828125 159.828125 159.828125s159.828125-71.699219 159.828125-159.828125c0-48.214844-21.460937-93.375-58.878906-123.902344l-9.554688 11.714844c33.886719 27.640625 53.316407 68.53125 53.316407 112.1875 0 79.792969-64.914063 144.710938-144.710938 144.710938-79.792969 0-144.710938-64.917969-144.710938-144.710938 0-79.796875 64.914063-144.710938 144.710938-144.710938 26.996094 0 53.328125 7.484376 76.160156 21.648438l7.96875-12.84375c-25.226562-15.652344-54.316406-23.921875-84.128906-23.921875-88.128906 0-159.828125 71.699219-159.828125 159.828125zm0 0"/><path d="m31.601562 248.441406h16.027344v15.117188h-16.027344zm0 0"/><path d="m464.371094 248.441406h16.027344v15.117188h-16.027344zm0 0"/><path d="m296.527344 176.3125v96.171875h-16.941406v-72.128906h-47.171876v72.128906h-16.941406v-48.085937h-47.175781v48.085937h-24.496094v15.117187h224.398438v-15.117187h-24.5v-96.171875zm-113.109375 96.171875v-32.96875h16.9375v32.96875zm64.113281 0v-57.011719h16.9375v57.011719zm64.113281 0v-81.054687h16.941407v81.054687zm0 0"/><path d="m247.984375 320.570312h16.03125v15.117188h-16.03125zm0 0"/><path d="m215.929688 152.269531h16.027343v15.117188h-16.027343zm0 0"/><path d="m159.828125 184.328125h56.101563v15.117187h-56.101563zm0 0"/></g></svg>