<svg id="Capa_1" enable-background="new 0 0 512.003 512.003" height="512" viewBox="0 0 512.003 512.003" width="512" xmlns="http://www.w3.org/2000/svg"><g><g><path d="m121.021 270.004c-.517 0-1.037-.027-1.562-.081-8.241-.852-14.229-8.224-13.378-16.464 6.767-65.408 28.226-129.786 62.059-186.174 4.262-7.103 13.473-9.408 20.58-5.145 7.104 4.262 9.407 13.476 5.145 20.58-31.589 52.648-51.625 112.756-57.941 173.826-.799 7.716-7.313 13.458-14.903 13.458z" fill="#5bc980"/></g><g><path d="m121.008 270.003c-.09 0-.179-.001-.27-.002-8.282-.146-14.879-6.979-14.733-15.262 1.441-81.765 11.668-163.58 30.396-243.171 1.897-8.064 9.973-13.062 18.037-11.166 8.064 1.898 13.063 9.973 11.166 18.037-18.24 77.515-28.2 157.196-29.604 236.829-.144 8.192-6.831 14.735-14.992 14.735z" fill="#6aa9ff"/></g><g><path d="m120.984 270.004c-7.591 0-14.104-5.742-14.902-13.458-6.316-61.07-26.353-121.178-57.941-173.826-4.263-7.104-1.959-16.318 5.145-20.58 7.104-4.264 16.318-1.958 20.58 5.145 33.833 56.388 55.292 120.766 62.059 186.174.852 8.24-5.137 15.612-13.378 16.464-.525.055-1.047.081-1.563.081z" fill="#ffb64c"/></g><g><path d="m120.998 270.003c-8.162 0-14.849-6.543-14.993-14.736-1.403-79.633-11.363-159.313-29.604-236.829-1.897-8.063 3.102-16.138 11.166-18.036 8.064-1.896 16.14 3.101 18.037 11.166 18.729 79.592 28.955 161.406 30.396 243.171.146 8.283-6.451 15.116-14.733 15.262-.089.001-.18.002-.269.002z" fill="#ff6c6c"/></g><g><g><g><path d="m316.003 113.783-14.56 1.55 14.56 40.89v47.56l-11.44 7.33 10.49 34.16c-2.14 5.68-7.62 9.73-14.05 9.73h-60c-8.28 0-15-6.72-15-15v-83.78l9.44-11.78-9.44-30.66v-47.56l9.44-18-9.44-24.44v-8.78c0-8.28 6.72-15 15-15h60c8.28 0 15 6.72 15 15z" fill="#eff6fe"/></g></g></g><path d="m316.003 113.783-14.56 1.55 14.56 40.89v47.56l-11.44 7.33 10.49 34.16c-2.14 5.68-7.62 9.73-14.05 9.73h-30v-255h30c8.28 0 15 6.72 15 15z" fill="#d2dce7"/><g><path d="m316.003 113.783v42.44l-90-90v-42.44z" fill="#d2dce7"/></g><g><path d="m316.003 203.783v36.22c0 1.85-.34 3.63-.95 5.27l-89.05-89.05v-42.44z" fill="#d2dce7"/></g><path d="m316.003 113.783v42.44l-45-45v-42.44z" fill="#a1aebc"/><path d="m271.003 158.783 45 45v36.22c0 1.85-.34 3.63-.95 5.27l-44.05-44.05z" fill="#a1aebc"/><g><path d="m436.003 15.003v240c0 8.28-6.72 15-15 15s-15-6.72-15-15v-240c0-8.28 6.72-15 15-15s15 6.72 15 15z" fill="#fed843"/></g><path d="m436.003 15.003v240c0 8.28-6.72 15-15 15v-270c8.28 0 15 6.72 15 15z" fill="#ffb64c"/><g><g><path d="m451.003 240.003h-60c-8.28 0-15 6.72-15 15v242c0 8.28 6.72 15 15 15h60c8.28 0 15-6.72 15-15v-242c0-8.28-6.72-15-15-15z" fill="#6e6e6e"/></g></g><path d="m466.003 255.003v242c0 8.28-6.72 15-15 15h-30v-272h30c8.28 0 15 6.72 15 15z" fill="#444"/><g><path d="m151.003 240.003h-60c-8.28 0-15 6.72-15 15v242c0 8.28 6.72 15 15 15h60c8.28 0 15-6.72 15-15v-242c0-8.28-6.72-15-15-15z" fill="#6e6e6e"/></g><path d="m166.003 255.003v242c0 8.28-6.72 15-15 15h-30v-272h30c8.28 0 15 6.72 15 15z" fill="#444"/><g><path d="m331.003 240.003h-120c-8.28 0-15 6.72-15 15v242c0 8.28 6.72 15 15 15h120c8.28 0 15-6.72 15-15v-242c0-8.28-6.72-15-15-15z" fill="#6e6e6e"/></g><path d="m346.003 255.003v242c0 8.28-6.72 15-15 15h-60v-272h60c8.28 0 15 6.72 15 15z" fill="#444"/></g></svg>