<svg xmlns="http://www.w3.org/2000/svg" viewBox="0 0 145 145"><defs><style>.cls-1{fill:#c01129;}.cls-2{fill:#fefefe;}.cls-3{fill:none;stroke:#c01129;}</style></defs><g id="Layer_2" data-name="Layer 2"><g id="Layer_1-2" data-name="Layer 1"><path class="cls-1" d="M23.8,72.41q0-18.66,0-37.33A19.72,19.72,0,0,1,43.89,15h57.64c11.28,0,20.14,8.39,20.2,19.62q.21,37.74,0,75.48a19.43,19.43,0,0,1-19.67,19.47q-29.23.15-58.46,0c-11.4-.06-19.79-8.76-19.79-20.19Zm9.34-48.66a15,15,0,0,0-4.77,10.94c-.07,4.85,0,9.71,0,14.57q0,30,0,59.91a15.15,15.15,0,0,0,8.24,14.09,11.48,11.48,0,0,0,1.62.59V82c3.88,0,7.63.09,11.37,0a2.85,2.85,0,0,1,3.08,1.94q9.7,19.74,19.59,39.4c.31.62.85,1.57,1.32,1.59,3,.15,5.91.08,9.16.08Zm2-1.51c.2.49.35.93.55,1.35q24.5,50,49,100A2.06,2.06,0,0,0,86.79,125c5.19-.08,10.4.09,15.59-.08,6.33-.21,10.78-3.44,13.48-9.11a9.39,9.39,0,0,0,.42-1.58c-8.24,0-16.24,0-24.24,0a2.88,2.88,0,0,1-3.1-1.87q-14.86-30.57-29.86-61C54.15,41.3,49.24,31.24,44.27,21.22c-.33-.68-1.15-1.62-1.7-1.59A12.91,12.91,0,0,0,35.11,22.24ZM93.23,60.11h23.7v-7.9H93.3V46h23.62V37.54H78.71V76.81h38.17v-9H93.23Zm-18-26.22h41.67c.18-7.65-6.91-14.34-15.09-14.36q-27,0-54,0c-.5,0-1,.09-1.69.16.54,1.14,1,2,1.43,3,.95,1.88,1.46,4.51,3,5.43s4.21.37,6.38.39c3.19,0,6.38,0,9.63,0,0,10.61,0,20.94,0,31.26a7.68,7.68,0,0,0,.7,3.13c2.21,4.68,4.53,9.32,6.83,14,.21.43.49.81.74,1.22l.33-.13Zm18.51,69.29c3.25,5.84,7,7.89,13.3,7.39,5.43-.43,9.88-3.91,10.13-8.72.34-6.59.08-13.22.08-19.92H76.65c1.42,2.9,2.83,5.61,4.07,8.39a2.24,2.24,0,0,0,2.48,1.52c3.44-.08,6.88,0,10.32,0l.11.39-9,6c1.38,2.82,2.68,5.48,4,8.2ZM66.47,124.87c0-.21.11-.37.06-.46q-7.8-15.76-15.65-31.51a1.72,1.72,0,0,0-1.2-.83c-2.37-.08-4.74,0-7.17,0v32.84ZM62.64,38.15H55.19l7.16,14.59.29-.11Z"/><path class="cls-2" d="M33.14,23.75,82.74,125c-3.25,0-6.21.07-9.16-.08-.47,0-1-1-1.32-1.59q-9.84-19.68-19.59-39.4A2.85,2.85,0,0,0,49.59,82c-3.74.14-7.49,0-11.37,0v41.85a11.48,11.48,0,0,1-1.62-.59,15.15,15.15,0,0,1-8.24-14.09q0-30,0-59.91c0-4.86-.05-9.72,0-14.57A15,15,0,0,1,33.14,23.75ZM38.34,75H47.7c-3.08-6.3-6.07-12.4-9.06-18.5l-.3.14Z"/><path class="cls-2" d="M35.11,22.24a12.91,12.91,0,0,1,7.46-2.61c.55,0,1.37.91,1.7,1.59,5,10,9.88,20.08,14.81,30.13Q74,81.86,88.94,112.4a2.88,2.88,0,0,0,3.1,1.87c8-.08,16,0,24.24,0a9.39,9.39,0,0,1-.42,1.58c-2.7,5.67-7.15,8.9-13.48,9.11-5.19.17-10.4,0-15.59.08a2.06,2.06,0,0,1-2.16-1.39q-24.47-50-49-100C35.46,23.17,35.31,22.73,35.11,22.24Z"/><path class="cls-2" d="M93.23,60.11V67.8h23.65v9H78.71V37.54h38.21V46H93.3v6.25h23.63v7.9Z"/><path class="cls-2" d="M75.24,33.89v44l-.33.13c-.25-.41-.53-.79-.74-1.22-2.3-4.65-4.62-9.29-6.83-14a7.68,7.68,0,0,1-.7-3.13c0-10.32,0-20.65,0-31.26-3.25,0-6.44,0-9.63,0-2.17,0-4.77.59-6.38-.39s-2.05-3.55-3-5.43c-.46-.91-.89-1.82-1.43-3,.7-.07,1.19-.16,1.69-.16q27,0,54,0c8.18,0,15.27,6.71,15.09,14.36Z"/><path class="cls-2" d="M93.75,103.18l-5.12,3.2c-1.34-2.72-2.64-5.38-4-8.2l9-6-.11-.39c-3.44,0-6.88,0-10.32,0a2.24,2.24,0,0,1-2.48-1.52c-1.24-2.78-2.65-5.49-4.07-8.39h40.61c0,6.7.26,13.33-.08,19.92-.25,4.81-4.7,8.29-10.13,8.72C100.71,111.07,97,109,93.75,103.18Zm5.87-11.26a54.33,54.33,0,0,0,.65,6.93,4.57,4.57,0,0,0,4.71,3.47,4.42,4.42,0,0,0,4.09-3.93,60.59,60.59,0,0,0,.05-6.47Z"/><path class="cls-2" d="M66.47,124.87h-24V92c2.43,0,4.8,0,7.17,0a1.72,1.72,0,0,1,1.2.83q7.86,15.73,15.65,31.51C66.58,124.5,66.5,124.66,66.47,124.87Z"/><path class="cls-2" d="M62.64,38.15V52.63l-.29.11L55.19,38.15Z"/><path class="cls-1" d="M38.34,75V56.59l.3-.14c3,6.1,6,12.2,9.06,18.5Z"/><path class="cls-1" d="M99.62,91.92h9.5a60.59,60.59,0,0,1-.05,6.47,4.42,4.42,0,0,1-4.09,3.93,4.57,4.57,0,0,1-4.71-3.47A54.33,54.33,0,0,1,99.62,91.92Z"/><circle class="cls-3" cx="72.5" cy="72.5" r="72"/></g></g></svg>